<?xml version="1.0" encoding="utf-8"?>
<!-- Generator: Adobe Illustrator 14.0.0, SVG Export Plug-In . SVG Version: 6.00 Build 43363)  -->
<!DOCTYPE svg PUBLIC "-//W3C//DTD SVG 1.1//EN" "http://www.w3.org/Graphics/SVG/1.1/DTD/svg11.dtd">
<svg version="1.1"
	 id="svg2" inkscape:version="0.47pre4 r22446" sodipodi:docname="rottweiler_outline.svg" xmlns:svg="http://www.w3.org/2000/svg" xmlns:cc="http://creativecommons.org/ns#" xmlns:ns1="http://sozi.baierouge.fr" xmlns:sodipodi="http://sodipodi.sourceforge.net/DTD/sodipodi-0.dtd" xmlns:dc="http://purl.org/dc/elements/1.1/" xmlns:rdf="http://www.w3.org/1999/02/22-rdf-syntax-ns#" xmlns:inkscape="http://www.inkscape.org/namespaces/inkscape"
	 xmlns="http://www.w3.org/2000/svg" xmlns:xlink="http://www.w3.org/1999/xlink" x="0px" y="0px" width="216px" height="288px"
	 viewBox="0 0 216 288" enable-background="new 0 0 216 288" xml:space="preserve">
<sodipodi:namedview  id="base" inkscape:window-maximized="1" inkscape:guide-bbox="true" inkscape:window-x="-4" inkscape:current-layer="layer4" inkscape:window-height="850" inkscape:pageopacity="0.0" inkscape:window-width="1440" inkscape:document-units="px" inkscape:pageshadow="2" inkscape:window-y="-3" inkscape:cy="385.69919" pagecolor="#ffffff" borderopacity="1.0" showguides="true" bordercolor="#666666" showgrid="false" inkscape:zoom="0.72901679" inkscape:cx="192.11435">
	</sodipodi:namedview>
<path d="M166.931,125.676c-0.794-1.866-1.696-4.822-2.001-6.57c-0.304-1.749-1.158-4.998-1.906-7.21
	c-1.049-3.101-1.358-4.901-1.361-7.861c-0.002-3.083-0.205-4.121-0.988-5.268c-1.842-2.698-6.68-12.683-8.256-17.047
	c-3.471-9.608-5.989-18.635-5.989-21.42c0-3.182,0.253-3.386,4.244-3.407l2.582-0.011l0.837,2.802
	c0.865,2.895,2.901,5.511,5.232,6.733c2,1.048,2.365,0.138,1.314-3.268c-1.707-5.531-2.726-11.035-3.5-18.885
	c-0.426-4.321-0.921-8.391-1.105-9.036c-0.322-1.135-5.738-6.146-10.965-10.152c-1.399-1.072-3.418-3.239-4.489-4.826
	c-4.629-6.86-10.974-11.977-20.315-16.373c-5.719-2.691-11.048-3.848-17.78-3.873v0c-5.708-0.021-6.865,0.344-10.047,3.198
	c-1.719,1.541-2.015,1.638-4.163,1.384c-2.185-0.259-2.314-0.21-2.314,0.837c0,1.249-0.643,1.9-2.384,2.419
	c-1.963,0.584-2.424,1.148-1.837,2.244c0.698,1.304-0.264,1.922-2.442,1.558c-0.917-0.153-4.988-0.605-9.047-1
	c-4.059-0.395-8.622-0.84-10.14-0.988c-3.216-0.315-3.672,0.049-4.814,3.861c-0.625,2.083-0.625,2.406,0.012,2.872
	c0.627,0.459,0.598,0.688-0.279,1.803c-0.698,0.888-0.995,1.893-0.954,3.314c0.032,1.123-0.159,3.008-0.43,4.187
	c-1.196,5.187-0.35,8.573,3.14,12.617c3.078,3.566,7.747,10.236,7.757,11.07c0.012,1.034,5.766,5.35,7.128,5.35
	c1.947,0,5.579,2.354,8.605,5.57c2.537,2.695,3.436,4.136,5.187,8.256c2.068,4.868,2.118,5.101,2.093,9.978
	c-0.023,4.72-0.237,5.806-3.872,19.292c-2.117,7.856-4.097,15.812-4.396,17.688c-0.505,3.175-0.742,3.656-3.5,6.907
	c-6.943,8.184-9.871,14.194-10.978,22.537c-0.456,3.435-0.45,4.754,0.046,6.662c0.341,1.31,0.625,3.979,0.628,5.932
	c0.005,3.388-0.079,3.685-1.965,6.431c-2.568,3.737-5.45,6.726-7.152,7.431c-1.04,0.431-1.349,0.874-1.349,1.907
	c0,0.741-0.222,1.841-0.488,2.442s-1.2,4.559-2.082,8.803l-1.605,7.721l-3.872,5.269c-2.989,4.069-3.804,5.512-3.593,6.349
	c0.149,0.597,0.056,3.585-0.209,6.641c-0.577,6.641-0.229,8.218,3.314,14.85c1.415,2.648,2.349,4.996,2.349,5.919
	c0,0.843,0.34,2.185,0.756,2.989c0.578,1.116,0.683,2.219,0.454,4.628c-0.275,2.89-0.176,3.411,1.198,6.245
	c0.825,1.701,1.677,3.667,1.884,4.36c0.355,1.19,0.004,7.306-0.756,13.373l-0.337,2.745h2.628c1.75,0,2.816,0.234,3.209,0.709
	c1.261,1.52,3.87,1.826,7.896,0.93c4.243-0.943,6.24-2.063,7.815-4.36c0.93-1.356,1.351-1.569,3.07-1.569
	c1.587,0,2.271,0.293,3.349,1.418l1.349,1.407l-0.326,8.78l-0.326,8.768l1.465,1.128c0.807,0.616,2.318,1.831,3.349,2.71
	c1.839,1.568,1.963,1.606,6.896,1.732c2.764,0.07,5.162,0.254,5.326,0.418c0.42,0.42,0.959,0.373,3.059-0.256
	c1.488-0.445,1.837-0.773,1.837-1.721c0-0.645,0.671-1.93,1.488-2.861c1.362-1.551,1.466-1.899,1.233-4.162
	c-0.248-2.402-1.867-6.217-3.791-8.943c-0.73-1.034-0.883-1.772-0.651-3.221c0.267-1.668,0.171-1.942-0.849-2.407
	c-1.804-0.821-3.897-6.457-3.5-9.419c0.182-1.36,0.866-2.355,3.035-4.454c2.727-2.639,2.863-2.7,5.5-2.71
	c2.31-0.008,2.84-0.191,3.641-1.209c1.412-1.797,4.48-1.681,6.082,0.221c0.648,0.771,1.654,1.551,2.232,1.732
	c1.814,0.572,6.691,4.012,8.453,5.966c1.631,1.807,1.857,1.89,6.059,2.407c5.826,0.717,7.701,1.783,8.757,4.931
	c0.438,1.303,0.816,3.022,0.837,3.825c0.035,1.309,0.314,1.571,2.641,2.535c1.428,0.593,3.093,1.01,3.697,0.931
	c0.605-0.079,1.939,0.264,2.978,0.756c2.331,1.106,5.159,1.095,9.105-0.034c3.019-0.865,3.026-0.875,3.791-3.303
	c0.728-2.314,0.713-2.605-0.232-5.779c-0.548-1.838-1.135-4.648-1.303-6.256c-0.194-1.857-0.518-2.932-0.896-2.932
	c-0.711,0-0.865-0.594-1.906-7.35c-0.555-3.589-0.714-6.41-0.5-9.047c0.17-2.106,0.289-6.936,0.267-10.732
	c-0.047-7.996,1.614-20.641,3.535-26.909c1.187-3.873,3.441-16.304,4.826-26.653c0.69-5.157,0.948-6.04,2.722-9.047
	C174.9,153.094,174.023,142.343,166.931,125.676z M104.567,16.323c-0.201,0.436-0.917,0.324-1.397,0.349
	c-0.822,0.042-1.723,0.047-2.445-0.349c-0.47-0.258-1.002-0.688-1.047-1.223c-0.057-0.676,0.457-1.412,1.047-1.746
	c0.557-0.315,1.339-0.268,1.921,0c0.488,0.224,0.751,0.775,1.048,1.222C104.054,15.119,104.839,15.732,104.567,16.323z
	 M143.986,183.356l0.837-0.675l0.675,0.338l0.5,4.012l0.5,3.523l-0.163,2.175v5.86l-0.675-6.023v-0.675l-1.174-1l-0.326-1.512
	l-0.512-1.512l-0.837-2L143.986,183.356z M145.16,221.697l-1.674,4.197l-0.5,3.85l0.162,3.174l0.175,3.188l-1.012,1.174l-0.5,2.175
	l-0.675,2.175l-2.512-0.163l-4.012-2.175l-3.35-2.186l-2.349-2.676l-0.837-1.174l-0.5-2.512l1-1.5l2.349-0.175l2.512-0.663
	l1.837-2.512l1.676-1.174l3.023-1.512l1.837-1.675l1.675-1.175l2.349-3.174v-0.001l0.663,0.163l0.337,1L145.16,221.697z"/>
</svg>
