<?xml version="1.0" encoding="utf-8"?>
<!-- Generator: Adobe Illustrator 14.0.0, SVG Export Plug-In . SVG Version: 6.00 Build 43363)  -->
<!DOCTYPE svg PUBLIC "-//W3C//DTD SVG 1.1//EN" "http://www.w3.org/Graphics/SVG/1.1/DTD/svg11.dtd">
<svg version="1.1"
	 id="g10" sodipodi:version="0.32" inkscape:version="0.45.1" sodipodi:docname="grey_hound.svg" sodipodi:docbase="C:\Documents and Settings\Owner\My Documents\Downloads" xmlns:rdf="http://www.w3.org/1999/02/22-rdf-syntax-ns#" xmlns:sodipodi="http://sodipodi.sourceforge.net/DTD/sodipodi-0.dtd" xmlns:cc="http://web.resource.org/cc/" xmlns:dc="http://purl.org/dc/elements/1.1/" xmlns:svg="http://www.w3.org/2000/svg" xmlns:ns0="http://ns.adobe.com/SaveForWeb/1.0/" xmlns:inkscape="http://www.inkscape.org/namespaces/inkscape" xmlns:ns1="http://sozi.baierouge.fr" xmlns:ns="http://ns.adobe.com/Variables/1.0/" inkscape:output_extension="org.inkscape.output.svg.inkscape"
	 xmlns="http://www.w3.org/2000/svg" xmlns:xlink="http://www.w3.org/1999/xlink" x="0px" y="0px" width="216px" height="288px"
	 viewBox="0 0 216 288" enable-background="new 0 0 216 288" xml:space="preserve">
<sodipodi:namedview  id="base" inkscape:window-width="1024" inkscape:pageopacity="0.0" inkscape:window-height="708" inkscape:window-x="-4" inkscape:window-y="-4" inkscape:current-layer="svg2" inkscape:pageshadow="2" inkscape:cx="208.56813" inkscape:zoom="1.9216174" objecttolerance="10.0" inkscape:cy="194.46553" guidetolerance="10.0" bordercolor="#666666" borderopacity="1.0" pagecolor="#ffffff" gridtolerance="10.0">
	</sodipodi:namedview>
<path stroke="#000000" stroke-width="0.3376" stroke-linecap="round" stroke-linejoin="round" stroke-miterlimit="2.4142" d="
	M211.074,89.097c-3.461-1.723-9.379-3.146-11.832-7.342c-1.511-4.569-6.922-4.569-9.015-7.192c-1.083-1.199-1.157-2.547-1.374-3.597
	c-2.309-0.523-4.402,0-5.628,2.249c-1.511-0.675-2.737-2.249-4.544-1.124c-0.719,1.048-1.585,1.798-3.752,2.396
	c-0.724,1.575-0.935,2.848-1.152,4.945c-4.909,4.27-20.202,15.508-27.204,23.973c-2.378,2.099-3.461,2.099-6.923,1.274
	c-6.061-1.498-15.224-1.048-22.009,0.75c-11.832,1.499-24.673,0.675-37.514,1.499c-24.461,0.598-31.243,11.313-35.859,18.055
	c-6.674,9.279-2.599,18.816-0.307,28.184c-0.016-0.027-0.042-0.063-0.054-0.087c-0.145,2.917-0.577,4.042-1.299,5.242
	c-2.742,5.617-4.185,7.942-10.679,12.064c-3.679,2.473-14.213,2.991-18.397,1.121c-3.607-0.825-9.668-4.122-12.337-7.488
	c-0.722-0.824-1.732,0.148-0.578,1.496c2.309,3.445,5.989,6.368,7.792,7.118c10.098,5.167,20.337,3.708,30.44-1.72
	c-4.64,4.036-9.418,9.419-12.909,13.779c-2.164,3.974,1.083,9.068,1.587,25.925c0.289,1.575,0.578,2.922,1.876,3.07
	c2.381,0.375,6.566,0.148,8.587-1.199c0.937-0.148,1.01,0.227,2.092,0.079c0.072-0.676,0-1.649-0.578-2.103
	c-0.433-1.723-1.298-2.394-2.814-2.621c-2.452-0.671-2.524,0.301-3.535-0.973c-1.371-5.696-1.947-15.731,1.516-19.478
	c1.793-1.323,3.557-2.686,5.274-4.079c1.002,5.311,1.148,12.18,1.651,16.064c0.361,2.774,0.505,4.497,3.391,4.418
	c1.155-0.069,2.093-0.148,2.958-0.222c0.938,0,2.886,0.074,3.536-0.449c0.722,0.301,1.083,0.301,1.441-0.074
	c0.507,0.227,0.94,0.301,1.374,0.148c0.069-1.496-0.291-1.348-0.576-2.547c-1.806-2.996-4.62-1.347-5.918-2.468
	c-1.298-3.075-1.587-8.92-1.515-14.913c0-1.4-0.058-3.912,0.228-5.693c0.683-0.646,1.357-1.294,2.009-1.948
	c4.185-2.098,9.381-6.817,12.335-10.114c1.908-1.59,3.173-3.446,4.031-5.545c2.284-1.71,4.14-6.375,4.699-9.135
	c0.745-3.223,1.423-12.706,3.919-15.774c5.363-3.629,10.143-1.01,21.334,0.788c7.794,2.394,14.791,10.711,19.769,12.735
	c7.435,2.996,14.717,4.719,22.58,3.372c0,0.75-0.861,2.621-1.152,3.07c0,2.172,0.867,3.673,1.442,5.543
	c2.743,7.567,1.802,18.432,3.319,26.75c0.65,3.742-1.517,8.989-0.291,12.36c1.517,4.196,4.544,8.317,6.061,12.434
	c-0.719,3.297,2.383,0.972,4.185,4.497c1.443,0.676,4.111,0.972,6.711-0.074c1.876-0.375,2.235-1.427,3.245-1.046
	c0.148-1.876-2.378-3.001-4.18-3.451c-0.971-0.662-1.786-0.987-2.504-1.346c1.306-0.034,1.96,0.66,3.439,0.078
	c1.009-0.306,1.157-1.131,2.309-0.903c-0.217-1.274-1.083-2.246-2.668-2.547c-0.941-0.523-1.95-0.824-3.319-0.824
	c-4.835-5.993-3.318-18.057-4.259-26.295c-1.139-8.957,2.858-18.351,2.951-26.522c5.1-3.84,11.307-18.904,15.159-29.069
	c1.802-5.618,5.987-10.114,8.73-15.807c1.009-0.675,1.517-1.199,1.517-2.996c3.176-2.772,5.479-11.089,6.854-10.19
	c2.959,1.424,7.79-0.3,9.454,0.299c0.867,1.199,1.728,1.723,4.687,1.199c2.019-0.374,6.42,0.749,8.08,0.524
	c1.659-0.149,4.477-1.349,6.136-3.221c1.511-0.524,2.595-0.599,2.812-3.221C214.758,90.371,213.891,89.847,211.074,89.097z"/>
</svg>
