<?xml version="1.0" encoding="utf-8"?>
<!-- Generator: Adobe Illustrator 14.0.0, SVG Export Plug-In . SVG Version: 6.00 Build 43363)  -->
<!DOCTYPE svg PUBLIC "-//W3C//DTD SVG 1.1//EN" "http://www.w3.org/Graphics/SVG/1.1/DTD/svg11.dtd">
<svg version="1.1"
	 id="Layer_1" xmlns:rdf="http://www.w3.org/1999/02/22-rdf-syntax-ns#" xmlns:sodipodi="http://sodipodi.sourceforge.net/DTD/sodipodi-0.dtd" xmlns:cc="http://web.resource.org/cc/" xmlns:dc="http://purl.org/dc/elements/1.1/" xmlns:svg="http://www.w3.org/2000/svg" xmlns:inkscape="http://www.inkscape.org/namespaces/inkscape" xmlns:ns1="http://sozi.baierouge.fr"
	 xmlns="http://www.w3.org/2000/svg" xmlns:xlink="http://www.w3.org/1999/xlink" x="0px" y="0px" width="216px" height="288px"
	 viewBox="0 0 216 288" enable-background="new 0 0 216 288" xml:space="preserve">
<path stroke="#000000" stroke-width="0.036" stroke-miterlimit="10" d="M215.99,84.183c0.014-1.006-0.639-3.623-1.445-4.294
	c-0.77-0.654-1.813-0.486-3.117,0.503c-0.373-0.805-0.74-1.274-1.359-1.409c-0.605-0.168-1.311,0.067-2.182,0.57
	c-0.367-1.04-0.839-1.761-1.543-1.979c-0.722-0.218-1.947-0.05-2.566,0.436c-0.672,0.369-1.071,1.325-1.143,1.963
	c-0.064,0.637,0.154,1.191,0.723,1.794c-0.94,0.134-1.625,0.403-2.129,0.873c-0.521,0.453-0.74,1.04-0.787,1.828
	c0.084-0.318-1.174,0.084-3.774,1.208c-0.876,0.361-1.895,0.802-3.036,1.309l1.574-0.955l-2.969-6.139
	c-0.233-0.168-0.387-0.353-0.387-0.554c-0.031-0.201,0.053-0.486,0.252-0.721c-1.104-0.805-1.943-1.56-2.512-2.449
	c-0.607-0.922-0.638-2.281-1.007-2.717c-0.456-0.436-1.09-0.168-1.463,0.101c-0.399,0.185-0.955,0.453-0.82,1.191
	c0.136,0.721,1.193,2.147,1.543,3.17c0.284,0.956,0.353,1.845,0.2,2.667c0.587-0.066,1.023,0.018,1.244,0.185
	c0.219,0.167,0.251,0.453,0.098,0.855l2.891,5.955l0.043-0.002c-1.546,0.697-3.307,1.507-5.313,2.439
	c0.028-0.018,0.057-0.036,0.085-0.054l-2.497-5.049c0.051-0.352,0.083-0.621,0.032-0.805c-0.052-0.218-0.187-0.302-0.336-0.319
	c-0.419,0.201-0.517,0.05-0.304-0.52c0.188-0.57,1.529-1.946,1.511-2.835c-0.099-0.923-0.904-1.98-1.761-2.533
	c-0.887-0.621-2.299-0.855-3.254-0.772c-0.974,0.067-1.78,0.503-2.349,1.375c-0.604,0.872-1.173,2.734-1.192,3.774
	c-0.031,0.99,0.471,1.695,0.992,2.181c0.434,0.419,1.226,0.537,1.729,0.604c0.465,0.033,0.851-0.353,1.153-0.252
	c0.272,0.067,0.485,0.335,0.588,0.738c-0.233,0.251-0.284,0.469-0.219,0.654c0.051,0.184,0.285,0.234,0.639,0.335l2.382,4.778
	l-44.892,20.531c-0.672-2.114-2.162-4.294-4.412-6.542c-2.33-2.315-5.703-5.469-9.144-7.012c-3.504-1.543-7.729-2.332-11.388-2.164
	c-3.671,0.084-6.961,1.225-10.381,2.902c-3.49,1.711-7.716,5.385-10.232,7.213c-2.554,1.745-3.089,2.701-4.851,3.321
	c-1.794,0.554-3.574,0.638-5.601,0.185l-1.877,2.869c1.458,1.174,2.246,2.482,2.297,3.925c0,1.442-0.284,3.019-2.031,4.662
	c-1.827,1.561-5.284,3.592-8.485,4.799c-3.206,1.207-7.296,2.297-10.47,2.362c-3.22-0.014-6.709-0.801-8.587-2.297
	c-1.878-1.508-2.716-3.671-2.582-6.622l-3.122-0.218c-0.471,1.409-1.291,2.499-2.717,3.337c-1.392,0.788-2.248,0.82-5.669,1.659
	c-3.54,0.773-10.299,1.663-15.097,3.257c-4.831,1.575-9.712,3.406-13.487,6.323c-3.824,2.903-7.112,6.491-9.024,11.155
	c-1.896,4.646-2.332,11.845-2.416,16.606c-0.185,4.715,0.453,8.168,1.459,11.522c0.973,3.304,2.382,5.901,4.294,8.07
	c-0.604,1.122-0.671,2.276-0.134,3.471c0.52,1.155,1.577,2.349,3.237,3.574c0.855,2.985,2.952,6.137,6.29,9.594
	c3.372,3.42,8.756,8.388,13.688,10.886c4.814,2.45,10.148,3.856,15.231,3.844c5.099-0.117,10.569-2.015,15.046-4.265
	c4.394-2.278,8.154-6.405,11.271-9.071c2.987-2.65,4.683-5.304,6.961-6.729c2.316-1.478,4.478-2.115,6.742-1.979l1.58-2.433
	c-1.193-0.438-2.032-1.207-2.586-2.315c-0.601-1.174-1.188-2.601-0.718-4.478c0.434-1.896,1.44-4.413,3.537-6.71
	c2.083-2.396,6.258-5.503,8.839-7.245c2.535-1.743,4.515-2.618,6.257-3.071c1.696-0.517,2.567-0.769,3.975,0.153
	c1.394,0.938,2.754,2.646,4.264,5.315l3.406,0.168c0.568-1.327,1.406-2.398,2.516-3.405c1.072-0.992,1.742-1.694,4.076-2.502
	c2.351-0.802,6.338-1.258,9.776-2.465c3.388-1.31,7.548-3.033,10.399-5.183c2.787-2.166,4.813-4.611,6.342-7.733
	c1.523-3.22,2.602-7.129,2.633-11.271c-0.051-4.226-0.988-8.587-2.818-13.536l47.077-25.514l2.429,5.052
	c0.387,0.118,0.588,0.319,0.604,0.604c0.015,0.251-0.251,0.638-0.624,1.09c0.723,0.403,1.38,0.99,1.967,1.829
	c0.602,0.838,0.987,2.583,1.543,3.17c0.471,0.503,0.987,0.251,1.426,0.083c0.399-0.218,1.058-0.47,0.988-1.073
	c-0.132-0.604-1.176-1.51-1.492-2.466c-0.336-1.023-0.438-2.147-0.367-3.506c-0.354-0.017-0.573-0.101-0.723-0.252
	c-0.148-0.151-0.232-0.386-0.187-0.637l-2.741-5.659c0.845-0.521,1.725-1.042,2.655-1.572c0.246-0.147,0.501-0.293,0.752-0.439
	l1.935,4.082c-0.182,0.319-0.252,0.587-0.135,0.738c0.088,0.167,0.303,0.218,0.656,0.218c0.232,0.353,0.303,0.638,0.201,0.923
	c-0.188,0.269-0.64,0.302-0.904,0.738c-0.322,0.402-0.672,1.073-0.605,1.744c0,0.654,0.32,1.493,1.09,2.13
	c0.787,0.554,2.601,1.325,3.69,1.409c1.039,0.034,1.864-0.319,2.534-0.99c0.639-0.688,1.324-2.063,1.426-3.036
	c0.053-1.04-0.199-2.349-0.89-2.952c-0.689-0.57-2.651-0.436-3.169-0.57c-0.586-0.168-0.656-0.419-0.205-0.57
	c0.07-0.168,0.052-0.319-0.047-0.453c-0.135-0.134-0.354-0.352-0.656-0.47l-2.119-4.506c0.729-0.392,1.475-0.785,2.251-1.182
	c0.267,0.335,0.704,0.419,1.375,0.184c0.651-0.268,1.427-0.738,2.446-1.593c0.236,1.191,0.755,1.795,1.563,1.996
	c0.805,0.101,2.6-0.419,3.187-1.04c0.555-0.654,0.522-1.459,0.032-2.617c1.024-0.486,1.664-0.99,1.916-1.51
	c0.219-0.554,0.051-1.057-0.504-1.644C215.216,85.542,215.887,85.122,215.99,84.183z"/>
</svg>
