<?xml version="1.0" encoding="utf-8"?>
<!-- Generator: Adobe Illustrator 14.0.0, SVG Export Plug-In . SVG Version: 6.00 Build 43363)  -->
<!DOCTYPE svg PUBLIC "-//W3C//DTD SVG 1.1//EN" "http://www.w3.org/Graphics/SVG/1.1/DTD/svg11.dtd">
<svg version="1.1"
	 id="Layer_1" xmlns:svg="http://www.w3.org/2000/svg" xmlns:cc="http://web.resource.org/cc/" xmlns:ns1="http://sozi.baierouge.fr" xmlns:sodipodi="http://sodipodi.sourceforge.net/DTD/sodipodi-0.dtd" xmlns:dc="http://purl.org/dc/elements/1.1/" xmlns:rdf="http://www.w3.org/1999/02/22-rdf-syntax-ns#" xmlns:inkscape="http://www.inkscape.org/namespaces/inkscape"
	 xmlns="http://www.w3.org/2000/svg" xmlns:xlink="http://www.w3.org/1999/xlink" x="0px" y="0px" width="216px" height="288px"
	 viewBox="0 0 216 288" enable-background="new 0 0 216 288" xml:space="preserve">
<g id="g5">
	<path id="path9" stroke="#000000" stroke-width="0.036" stroke-miterlimit="10" d="M51.571,119.445l-3.122-0.218
		c-0.471,1.409-1.291,2.499-2.717,3.337c-1.392,0.788-2.248,0.82-5.669,1.659c-3.54,0.773-10.299,1.663-15.097,3.257
		c-4.831,1.575-9.712,3.406-13.487,6.323c-3.824,2.903-7.112,6.491-9.024,11.155c-1.896,4.646-2.332,11.845-2.416,16.606
		c-0.185,4.715,0.453,8.168,1.459,11.523c0.973,3.303,2.382,5.902,4.294,8.07c-0.604,1.122-0.671,2.277-0.134,3.471
		c0.52,1.155,1.577,2.348,3.237,3.574c0.855,2.986,2.952,6.137,6.29,9.594c3.372,3.42,8.756,8.387,13.688,10.885
		c4.814,2.451,10.148,3.857,15.231,3.844c5.099-0.117,10.569-2.014,15.046-4.264c4.394-2.278,8.154-6.406,11.271-9.072
		c2.987-2.65,4.683-5.303,6.961-6.729c2.316-1.477,4.478-2.115,6.742-1.979l1.58-2.433c-1.193-0.438-2.032-1.207-2.586-2.315
		c-0.601-1.175-1.188-2.601-0.718-4.478c0.434-1.896,1.44-4.413,3.537-6.71c2.083-2.396,6.258-5.503,8.839-7.245
		c2.535-1.743,4.515-2.619,6.257-3.071c1.696-0.517,2.567-0.769,3.975,0.153c1.394,0.938,2.754,2.646,4.264,5.316l3.406,0.168
		c0.568-1.328,1.406-2.399,2.516-3.406c1.071-0.992,1.742-1.695,4.076-2.502c2.35-0.801,6.338-1.258,9.776-2.465
		c3.388-1.309,7.548-3.033,10.399-5.182c2.787-2.166,4.814-4.612,6.342-7.734c1.523-3.22,2.601-7.129,2.633-11.271
		c-0.051-4.226-0.988-8.587-2.818-13.536l47.541-25.765c1.556-1.04,3.187-2.046,5.014-3.086c1.793-1.074,3.709-2.114,5.805-3.187
		c0.266,0.335,0.704,0.419,1.375,0.184c0.652-0.268,1.426-0.738,2.446-1.593c0.237,1.191,0.755,1.795,1.562,1.996
		c0.806,0.101,2.6-0.419,3.187-1.04c0.555-0.654,0.522-1.459,0.032-2.617c1.025-0.486,1.664-0.99,1.916-1.51
		c0.219-0.554,0.051-1.057-0.504-1.644c1.24,0.034,1.91-0.386,2.014-1.325c0.014-1.006-0.639-3.623-1.445-4.294
		c-0.769-0.654-1.813-0.486-3.117,0.503c-0.373-0.805-0.74-1.274-1.36-1.409c-0.605-0.168-1.31,0.067-2.181,0.57
		c-0.368-1.04-0.839-1.761-1.543-1.979c-0.722-0.218-1.947-0.05-2.566,0.436c-0.672,0.369-1.072,1.325-1.143,1.963
		c-0.064,0.637,0.154,1.191,0.723,1.794c-0.941,0.134-1.626,0.403-2.129,0.873c-0.521,0.453-0.741,1.04-0.787,1.828
		c0.084-0.318-1.175,0.084-3.775,1.208c-2.684,1.107-6.561,2.885-11.946,5.401l-45.407,20.767c-0.671-2.114-2.162-4.294-4.412-6.542
		c-2.33-2.315-5.703-5.469-9.143-7.012c-3.504-1.543-7.729-2.332-11.388-2.164c-3.671,0.084-6.961,1.225-10.381,2.902
		c-3.49,1.711-7.716,5.385-10.232,7.213c-2.554,1.745-3.089,2.701-4.851,3.321c-1.794,0.554-3.574,0.638-5.601,0.185l-1.877,2.869
		c1.458,1.174,2.246,2.482,2.297,3.925c0,1.442-0.284,3.019-2.031,4.662c-1.827,1.561-5.284,3.592-8.485,4.799
		c-3.206,1.207-7.296,2.297-10.47,2.362c-3.22-0.014-6.709-0.801-8.587-2.297C52.275,124.559,51.437,122.396,51.571,119.445
		L51.571,119.445z"/>
	<path id="path11" stroke="#000000" stroke-width="0.036" stroke-miterlimit="10" d="M184.391,91.683l-2.567-5.149
		c-0.354-0.101-0.587-0.151-0.638-0.335c-0.066-0.185-0.015-0.403,0.219-0.654c-0.103-0.403-0.316-0.671-0.588-0.738
		c-0.303-0.101-0.689,0.285-1.154,0.252c-0.504-0.067-1.296-0.185-1.729-0.604c-0.522-0.486-1.024-1.191-0.992-2.181
		c0.019-1.04,0.587-2.902,1.192-3.774c0.568-0.872,1.375-1.308,2.349-1.375c0.955-0.083,2.367,0.151,3.253,0.772
		c0.857,0.553,1.663,1.61,1.761,2.533c0.019,0.889-1.323,2.265-1.51,2.835c-0.214,0.57-0.116,0.721,0.303,0.52
		c0.149,0.017,0.284,0.101,0.336,0.319c0.051,0.184,0.019,0.453-0.032,0.805l2.497,5.049
		C186.199,90.526,185.295,91.096,184.391,91.683L184.391,91.683z"/>
	<path id="path13" stroke="#000000" stroke-width="0.036" stroke-miterlimit="10" d="M192.275,87.574l-2.89-5.955
		c0.153-0.402,0.121-0.688-0.098-0.855c-0.22-0.167-0.657-0.251-1.244-0.185c0.153-0.822,0.084-1.711-0.2-2.667
		c-0.35-1.023-1.407-2.449-1.543-3.17c-0.135-0.738,0.42-1.006,0.82-1.191c0.373-0.269,1.007-0.537,1.463-0.101
		c0.369,0.436,0.4,1.795,1.007,2.717c0.568,0.889,1.407,1.644,2.512,2.449c-0.2,0.235-0.284,0.52-0.252,0.721
		c0,0.201,0.153,0.386,0.387,0.554l2.968,6.139l-2.516,1.526L192.275,87.574z"/>
	<path id="path15" stroke="#000000" stroke-width="0.036" stroke-miterlimit="10" d="M192.237,97.336l2.87,5.972
		c0.387,0.118,0.588,0.319,0.605,0.604c0.015,0.251-0.251,0.638-0.624,1.09c0.722,0.403,1.38,0.99,1.966,1.829
		c0.602,0.838,0.988,2.583,1.543,3.17c0.471,0.503,0.988,0.251,1.426,0.083c0.4-0.218,1.058-0.47,0.988-1.073
		c-0.131-0.604-1.175-1.51-1.492-2.466c-0.335-1.023-0.438-2.147-0.367-3.506c-0.354-0.017-0.573-0.101-0.723-0.252
		c-0.148-0.151-0.232-0.386-0.186-0.637l-2.982-6.156l-2.754,1.04L192.237,97.336z"/>
	<path id="path17" stroke="#000000" stroke-width="0.036" stroke-miterlimit="10" d="M198.379,93.361l2.465,5.2
		c-0.182,0.319-0.252,0.587-0.135,0.738c0.088,0.167,0.303,0.218,0.656,0.218c0.232,0.353,0.303,0.638,0.201,0.923
		c-0.188,0.269-0.639,0.302-0.904,0.738c-0.322,0.402-0.672,1.073-0.605,1.744c0,0.654,0.32,1.493,1.09,2.13
		c0.787,0.554,2.6,1.325,3.69,1.409c1.039,0.034,1.864-0.319,2.534-0.99c0.639-0.688,1.324-2.063,1.426-3.036
		c0.052-1.04-0.199-2.349-0.89-2.952c-0.689-0.57-2.651-0.436-3.169-0.57c-0.586-0.168-0.656-0.419-0.205-0.57
		c0.07-0.168,0.052-0.319-0.046-0.453c-0.136-0.134-0.354-0.352-0.657-0.47l-2.399-5.099
		C200.424,92.656,199.404,93.008,198.379,93.361L198.379,93.361z"/>
</g>
</svg>
