<?xml version="1.0" encoding="utf-8"?>
<!-- Generator: Adobe Illustrator 14.0.0, SVG Export Plug-In . SVG Version: 6.00 Build 43363)  -->
<!DOCTYPE svg PUBLIC "-//W3C//DTD SVG 1.1//EN" "http://www.w3.org/Graphics/SVG/1.1/DTD/svg11.dtd">
<svg version="1.1"
	 id="svg3207" sodipodi:version="0.32" inkscape:version="0.46" sodipodi:docname="alien silhouette.svg" xmlns:rdf="http://www.w3.org/1999/02/22-rdf-syntax-ns#" xmlns:sodipodi="http://sodipodi.sourceforge.net/DTD/sodipodi-0.dtd" xmlns:cc="http://creativecommons.org/ns#" xmlns:dc="http://purl.org/dc/elements/1.1/" xmlns:svg="http://www.w3.org/2000/svg" xmlns:inkscape="http://www.inkscape.org/namespaces/inkscape" xmlns:ns1="http://sozi.baierouge.fr" inkscape:output_extension="org.inkscape.output.svg.inkscape"
	 xmlns="http://www.w3.org/2000/svg" xmlns:xlink="http://www.w3.org/1999/xlink" x="0px" y="0px" width="216px" height="288px"
	 viewBox="0 0 216 288" enable-background="new 0 0 216 288" xml:space="preserve">
<sodipodi:namedview  id="base" inkscape:window-width="1280" inkscape:pageopacity="0.0" inkscape:window-height="719" inkscape:window-x="-4" inkscape:window-y="-4" inkscape:current-layer="layer1" inkscape:pageshadow="2" showgrid="false" inkscape:cx="-57.779942" inkscape:zoom="0.49497475" inkscape:cy="602.18455" bordercolor="#666666" borderopacity="1.0" pagecolor="#ffffff" inkscape:document-units="px">
	</sodipodi:namedview>
<path stroke="#000000" d="M170.253,260.451c-8.946-6.869-19.555-13.818-22.228-25.604c-2.68-11.851-7.57-23.209-10.435-34.916
	c-1.364-5.568,5.192-4.07,10.876-3.115c5.988,1.01,9.52,3.11,14.568,5.723c4.793,2.479,13.715,6.83,16.172,1.83
	c1.762-3.571-10.701-6.785-15.672-9.551c-7.087-3.946-12.928-10.024-19.248-14.59c-5.582-4.031-7.318-10.81-6.157-17.004
	c33.715-4.142,59.868-33.858,59.868-69.927c0-38.902-30.419-70.439-67.941-70.439c-4.016,0-7.943,0.382-11.769,1.075
	c-5.489-3.471-12.005-5.203-19.083-4.177c-0.822,0.119-1.714,0.185-2.646,0.218C90.166,10.033,79.335,3.166,66.748,4.99
	c-15.025,2.181-49.9-11.177-48.457-0.643c1.46,10.653,33.056,7.963,49.683,8.2c6.554,0.092,11.8,2.589,16.189,6.407
	c-15.887-2.412-34.478-7.59-33.419,0.16c1.229,8.946,23.705,8.486,40.723,8.246c1.246,1.798,2.417,3.677,3.536,5.59
	c-19.708,12.331-32.89,34.742-32.89,60.347c0,36.507,26.787,66.522,61.095,70.083c0.06,0.151,0.113,0.306,0.178,0.454
	c2.334,5.405,0.465,11.488-5.644,13.507c-8.031,2.66-18.328,5.979-24.94,1.928c-4.451-2.729-17.858,0.051-11.543,4.234
	c5.445,3.604,13.215,1.088,19.758,2.294c7.69,1.419,18.11,4.96,18.585,13.962c0.607,11.488-10.623,19.203-13.501,29.316
	c-2.878,10.109-5.316,19.432-10.905,28.23c-5.583,8.793-11.434,18.719-20.722,24.094c-1.971,1.15-7.267,3-5.171,4.715
	c6.617,5.406,17.097-1.885,22.463-8.283c7.221-8.615,11.652-18.961,18.342-27.893c5.55-7.414,15.797-11.623,24.586-7.469
	c11.775,5.563,18.563,17.704,30.603,23.065c7.077,3.146,9.214,11.784,12.151,18.565c3.546,8.181,7.508-1.262,6.482-6.385
	C182.389,269.982,176.035,264.898,170.253,260.451z M100.248,27.313c0.059,0,0.121,0,0.179,0.001c1.613,0.022,3.142,0.202,4.604,0.5
	c-1.353,0.556-2.688,1.146-3.996,1.788C100.796,28.832,100.534,28.068,100.248,27.313z M88.094,127.774
	c-12.424,0-22.539-15.006-22.961-33.757c0.416,12.452,7.182,22.354,15.467,22.354c8.554,0,15.488-10.552,15.488-23.568
	c0-13.016-6.934-23.568-15.488-23.568c-8.553,0-15.487,10.552-15.487,23.568c0,0,0-0.001,0-0.001
	c0-19.315,10.289-34.973,22.981-34.973c12.692,0,22.982,15.658,22.982,34.973C111.076,112.116,100.786,127.774,88.094,127.774z
	 M69.586,85.615c0-3.359,1.79-6.082,3.997-6.082s3.997,2.723,3.997,6.082c0,3.359-1.79,6.082-3.997,6.082
	C71.375,91.697,69.586,88.974,69.586,85.615z"/>
</svg>
