<?xml version="1.0" encoding="utf-8"?>
<!-- Generator: Adobe Illustrator 14.0.0, SVG Export Plug-In . SVG Version: 6.00 Build 43363)  -->
<!DOCTYPE svg PUBLIC "-//W3C//DTD SVG 1.1//EN" "http://www.w3.org/Graphics/SVG/1.1/DTD/svg11.dtd">
<svg version="1.1"
	 id="Layer_1" xmlns:rdf="http://www.w3.org/1999/02/22-rdf-syntax-ns#" xmlns:sodipodi="http://sodipodi.sourceforge.net/DTD/sodipodi-0.dtd" xmlns:cc="http://web.resource.org/cc/" xmlns:dc="http://purl.org/dc/elements/1.1/" xmlns:svg="http://www.w3.org/2000/svg" xmlns:inkscape="http://www.inkscape.org/namespaces/inkscape" xmlns:ns1="http://sozi.baierouge.fr"
	 xmlns="http://www.w3.org/2000/svg" xmlns:xlink="http://www.w3.org/1999/xlink" x="0px" y="0px" width="216px" height="288px"
	 viewBox="0 0 216 288" enable-background="new 0 0 216 288" xml:space="preserve">
<g id="Layer_1_1_" display="none">
</g>
<g id="Head" display="none">
	
		<ellipse display="inline" fill="none" stroke="#FFFFFF" stroke-width="0.25" stroke-miterlimit="10" cx="312.444" cy="213.614" rx="36.69" ry="31.694"/>
	<path display="inline" fill="none" stroke="#FFFFFF" stroke-width="0.25" stroke-miterlimit="10" d="M365.718,139.454
		c-6.112-1.844-14.723,8.776-19.231,23.722c-1.793,5.937-2.664,11.66-2.685,16.521c4.836,3.388,8.758,7.647,11.43,12.489
		c4.957-3.364,10.196-11.764,13.386-22.332c4.511-14.944,3.212-28.553-2.901-30.396L365.718,139.454z"/>
</g>
<g id="Layer_5" display="none">
	<g display="inline">
		<g>
			<path d="M337.179,182.852h2.542c2.869,1.197,3.696,4.436,4.235,7.963v4.234c-1.049,6.162-2.245,12.236-3.389,18.297
				c-0.919,4.869-1.487,9.12-3.558,12.706c-0.599,1.036-2.055,2.3-2.202,3.558c-0.969,8.307-5.106,15.635-6.777,24.057
				c-1.691,8.531-2.541,17.011-6.268,24.395c0.221,3.815-0.241,7.518-0.169,10.674c0.068,3.031,0.792,5.877,0.847,8.64
				c0.287,14.579-6.803,24.88-13.553,33.035c-2.679,3.235-6.003,6.114-8.81,9.827c-4.773,6.314-7.592,13.406-12.367,20.16
				c0.012,9.63,0.454,20.115,0.509,30.154c0.018,3.389-0.21,6.978,0.169,9.996c0.393,3.12,2.176,6.423,2.711,9.317
				c2.546,1.631,4.744,2.985,7.454,4.573c2.837,1.664,8.129,3.966,6.1,9.148c-2.018,5.152-9.446,5.41-15.586,4.404
				c-6.526-1.068-12.552-1.261-15.417-5.929c-1.865-3.039-3.28-7.449-5.082-11.689c-3.344-7.872-4.555-17.55-6.438-26.937
				c-0.591-2.945-1.353-8.047-2.542-12.028c-0.267-0.895-0.003-1.063-0.847-1.187c-1.885-0.275-0.904,3.732-1.016,6.1
				c-0.085,1.799-0.771,4.987-0.848,6.438c-0.208,3.912-0.029,7.436-0.678,10.842c-1.844,9.699-6.279,17.154-12.197,23.21
				c4.572,1.43,5.598,9.409,1.187,12.367c-2.382,1.597-6.015,2.151-9.826,2.711c-8.735,1.282-19.622,2.047-28.8,1.524
				c-1.91-0.108-3.6-0.757-5.252-0.847c-2.032-0.11-4.523,0.6-6.945,0.847c-6.559,0.672-14.57,1.5-21.686,1.017
				c-0.107-0.008-0.23-0.011-0.338,0c-2.275,0.223-4.83,1.464-7.455,2.032c-7.407,1.605-17.056,1.909-25.411,2.711h-11.521
				c-35.402-1.076-65.921-7.038-69.628-39.812v-7.114c0.349-3.16,0.99-6.559,1.864-9.318c2.622-8.287,7.515-15.423,12.875-20.329
				c3.469-3.175,7.657-6.08,13.723-8.302c4.058-1.485,15.093-4.645,17.11,0c0.573,1.317,0.378,3.014-0.169,4.066
				c-1.134,2.183-4.532,1.979-7.454,2.88c-8.078,2.489-13.354,7.478-17.619,13.553c-5.816,8.286-9.237,20.855-3.219,31.511
				c7.178,12.709,26.238,15.894,45.572,16.771c6.162,0.28,14.607,1.372,20.16,0c2.481-0.613,5.469-2.125,8.471-3.727
				c1.656-0.884,7.119-3.662,7.284-5.422c0.754-8.037,2.395-13.83,3.05-20.668c0.202-2.11-0.695-3.888-1.017-5.76
				c-2.438-14.177-0.224-28.875,2.88-40.488c3.59-13.432,9.043-25.582,15.925-35.916c7.39-11.097,15.188-19.506,26.598-25.242
				c8.712-4.38,18.135-8.128,27.444-11.52c3.234-1.179,6.846-1.438,10.504-2.541c2.912-0.88,6.096-2.871,9.148-4.405
				c2.773-1.396,5.998-2.722,8.301-4.235c1.578-1.037,2.922-3.227,4.574-4.913c1.369-1.396,2.771-3.073,4.573-4.573
				c3.136-2.61,7.58-5.145,8.979-9.318c1.307-3.896,0.21-8.763,0.338-13.892c-3.83-5.407-4.459-13.946-6.438-21.685
				c-0.869-3.402-2.306-6.92-2.88-11.182c-0.521-3.875-0.362-10.107,3.22-10.504c2.979-0.328,5.141,2.432,6.945,4.236
				c4.066,4.066,7.088,7.105,11.352,10.672c1.853,1.551,4.396,3.907,6.775,4.236c2.113,0.291,5.311-0.92,8.133-1.018
				c2.651-0.091,5.265,0.155,8.471,0.678c2.194-1.32,3.72-3.605,5.591-5.59c1.827-1.938,3.666-3.986,5.591-6.1
				c3.239-3.557,7.849-9.183,12.197-11.35L337.179,182.852z"/>
		</g>
	</g>
</g>
<path d="M198.296,58.532c-4.265,4.041-8.68,9.504-10.751,11.524c-2.069,2.02-1.67,1.721-4.14,1.347s-2.919-0.255-5.612,0.194
	c-2.693,0.449-3.592,0.778-5.688-0.568c-2.096-1.347-4.339-3.667-10.177-9.354c-5.837-5.688-6.998-0.915-6.755,3.87l0.009,0.024
	c0.063,1.238,1.115,4.073,2.181,7.991c1.076,3.943,1.271,6.081,2.228,9.666c0.956,3.585,2.127,4.154,2.153,5.117
	c0.192,7.067,0.846,9.09-2.153,12.09c-1.554,1.553-7.05,6.333-8.962,8.723s-8.962,5.735-13.503,7.289
	c-4.54,1.553-0.716-1.076-20.552,7.049c-19.836,8.125-38.357,35.967-36.207,55.564c2.151,19.598,0,26.288-0.359,30.231
	c-0.358,3.944-1.553,5.378-8.364,8.484c-3.787,1.728-8.73,0.837-21.508,0.837c-14.219,0-27.961-3.942-27.961-18.162
	c0-14.221,7.41-23.151,15.534-23.302c12.906-0.239,5.138-6.572-1.075-6.333c-8.598,0.33-23.955,10.156-23.955,30.231
	c0,12.444,7.597,26.306,37.304,28.326c29.708,2.021,38.238-2.693,39.735-2.918c1.497-0.224,4.863,0.599,9.803,0
	c4.939-0.598,8.232-1.122,9.862-1.197c1.629-0.074,1.139,1.423,16.029,0.3c14.893-1.123,15.641-3.593,15.791-6.586
	c0.148-2.992-2.992-4.266-2.992-4.266s7.107-6.586,8.904-17.734c1.588-9.859,0.822-15.716,0.822-15.716s2.396,5.089,4.043,17.736
	c0.632,4.861,3.292,12.496,5.985,18.185c2.433,5.137,12.646,5.526,15.789,5.312c6.474-0.442,6.959-5.688,4.64-7.558
	c-2.32-1.871-6.809-4.415-7.857-4.789s-1.496-3.666-2.096-6.136s-0.299-24.096-0.299-26.116c0-2.021-0.674-0.523,0.523-2.17
	s2.844-4.714,6.436-10.701s4.04-3.442,10.4-13.32c6.361-9.877,6.361-13.32,5.912-19.979c-0.219-3.231-0.3-3.143-0.3-6.884
	s-0.239-3.593,0.647-5.389c0.887-1.796,2.645-8.157,3.468-14.069c0.823-5.912,3.763-11.404,4.489-16.089
	c0.824-5.305,2.32-3.083,2.694-6.884c0.618-6.279,3.669-12.572,3.669-19.681S202.561,54.491,198.296,58.532z"/>
</svg>
