<?xml version="1.0" encoding="utf-8"?>
<!-- Generator: Adobe Illustrator 14.0.0, SVG Export Plug-In . SVG Version: 6.00 Build 43363)  -->
<!DOCTYPE svg PUBLIC "-//W3C//DTD SVG 1.1//EN" "http://www.w3.org/Graphics/SVG/1.1/DTD/svg11.dtd">
<svg version="1.1"
	 id="Layer_1" xmlns:rdf="http://www.w3.org/1999/02/22-rdf-syntax-ns#" xmlns:sodipodi="http://sodipodi.sourceforge.net/DTD/sodipodi-0.dtd" xmlns:cc="http://web.resource.org/cc/" xmlns:dc="http://purl.org/dc/elements/1.1/" xmlns:svg="http://www.w3.org/2000/svg" xmlns:inkscape="http://www.inkscape.org/namespaces/inkscape" xmlns:ns1="http://sozi.baierouge.fr"
	 xmlns="http://www.w3.org/2000/svg" xmlns:xlink="http://www.w3.org/1999/xlink" x="0px" y="0px" width="216px" height="288px"
	 viewBox="0 0 216 288" enable-background="new 0 0 216 288" xml:space="preserve">
<g>
	<path d="M78.163,220.652c-0.176-0.112-0.356-0.217-0.532-0.332C77.384,222.25,77.617,222.134,78.163,220.652z"/>
	<path d="M122.93,253.381l-0.006-0.012l3.549-26.978c17.992-2.974,32.541-9.019,32.541-9.019
		c-24.77-67.231-25.949-117.334-25.949-117.334s-3.637,1.687-9.031,2.494c0.75-3.726,2.24-8.048,5.197-11.212
		c6.168-6.607,26.83-5.458,15.279-33.934l2.57-0.28c1.845-0.156,3.171-2.241,2.953-4.66c-0.213-2.383-1.85-4.194-3.67-4.08
		l-0.002-0.006l-0.043,0.004c-0.004,0-0.008,0-0.013,0c-0.007,0-0.013,0.003-0.019,0.004l-2.77,0.304
		c0.031-7.998-0.82-22.141-6.633-29.956c16.381-4.879,13.26,11.151,13.26,11.151l3.559,1.746
		c5.355-28.752-43.314-33.801-64.374-30.897C68.275,3.627,68.115,23.068,68.115,23.068C56.4,25.973,56.997,80.557,56.997,80.557
		s12.902,4.069,25.81,3.486c1.787-0.081,3.428-0.328,4.949-0.708c3.478,2.388,8.006,4.071,13.885,4.071
		c1.945,0,3.886,4.575,3.876,12.842c-1.835-0.826-3.671-1.866-5.474-3.184c0,0-29.277,36.208-25.714,77.424
		c0,0-0.315,3.556,5.343,4.907v6.557c0,0-1.28,2.294-2.305,3.008c-0.397-0.165-0.823-0.705-1.259-1.844
		c0-4.961-2.137-7.688-6.271-3.134c-0.275,0.185-0.511,0.445-0.692,0.805c-3.047,3.757-0.47,10.658,5.51,14.53
		c2.365,1.605,5.346,2.682,8.862,2.813c-2.156,7.997-4.314,15.712-5.349,18.519c6.053,3.813,13.098,5.895,20.463,6.797
		l-0.713,45.329c0,0-2.585,7.761,5.26,6.32c0,0,12.85,13.08,33.828,7.532v-5.408c-7.184-6.291-24.515-6.926-29.168-12.758
		l5.199-40.584c0.146-0.007,0.293-0.017,0.439-0.023l-0.469,29.83c0,0-2.586,7.762,5.26,6.32c0,0,12.851,13.08,33.83,7.533v-5.406
		C144.911,259.847,127.583,259.217,122.93,253.381z"/>
</g>
</svg>
