<?xml version="1.0" encoding="utf-8"?>
<!-- Generator: Adobe Illustrator 14.0.0, SVG Export Plug-In . SVG Version: 6.00 Build 43363)  -->
<!DOCTYPE svg PUBLIC "-//W3C//DTD SVG 1.1//EN" "http://www.w3.org/Graphics/SVG/1.1/DTD/svg11.dtd">
<svg version="1.1"
	 id="Layer_1" xmlns:rdf="http://www.w3.org/1999/02/22-rdf-syntax-ns#" xmlns:sodipodi="http://sodipodi.sourceforge.net/DTD/sodipodi-0.dtd" xmlns:cc="http://web.resource.org/cc/" xmlns:dc="http://purl.org/dc/elements/1.1/" xmlns:svg="http://www.w3.org/2000/svg" xmlns:inkscape="http://www.inkscape.org/namespaces/inkscape" xmlns:ns1="http://sozi.baierouge.fr"
	 xmlns="http://www.w3.org/2000/svg" xmlns:xlink="http://www.w3.org/1999/xlink" x="0px" y="0px" width="216px" height="288px"
	 viewBox="0 0 216 288" enable-background="new 0 0 216 288" xml:space="preserve">
<path d="M160.598,74.57c0-43.683-24.041-75.57-53.595-75.57S53.406,30.888,53.406,74.57c0,23.284,6.828,44.25,17.684,58.766
	l-0.538,0.353c0.169,0.25,16.901,24.983,21.812,37.258c3.844,9.586,6.213,21.58,7.078,26.418h-1.894v79.058l-3.196,3.822v6.753
	h25.845v-7.279l-3.974-3.963v-78.389h-1.538c0.861-4.838,3.248-16.834,7.075-26.418c4.906-12.275,21.642-37.009,21.818-37.259
	l-0.622-0.422c10.83-14.49,17.641-35.436,17.641-58.688V74.57z M146.688,39.175h0.169c1.57,3.929,2.882,8.13,3.896,12.59h-4.065
	V39.175z M146.688,54.761h4.71c0.777,4.027,1.354,8.217,1.641,12.587h-6.351V54.761z M131.107,15.948
	c1.554,1.356,3.053,2.822,4.479,4.434h-4.479V15.948z M99.931,7.153c2.313-0.495,4.661-0.829,7.071-0.829
	c1.874-0.001,3.713,0.2,5.528,0.501v13.557H99.931V7.153z M99.931,23.375h12.599V36.18H99.931V23.375z M99.931,39.175h12.599v12.591
	l-12.599-0.001V39.175z M99.931,54.761h12.599v12.587H99.931V54.761z M99.931,70.339h12.599v12.587H99.931V70.339z M99.931,85.922
	h12.599v12.594H99.931V85.922z M99.931,101.513h12.599v12.595H99.931V101.513z M99.931,117.089h12.599V129.5H99.931V117.089z
	 M99.931,132.494h12.599v13.422c-1.814,0.338-3.654,0.564-5.526,0.564c-2.411,0-4.758-0.377-7.071-0.932l-0.002-13.051V132.494z
	 M84.352,14.689c3.885-3.104,8.111-5.402,12.584-6.791v12.484H84.352V14.689z M84.352,23.375h12.583V36.18H84.352V23.375z
	 M84.352,39.175h12.583v12.591H84.352V39.175z M84.352,54.761h12.583v12.587H84.352V54.761z M84.352,70.339h12.583v12.587H84.352
	V70.339z M84.352,85.922h12.583v12.594H84.352V85.922z M84.352,101.513h12.583v12.595H84.352V101.513z M84.352,117.089h12.583V129.5
	H84.352V117.089z M81.353,17.28v3.102h-2.94C79.369,19.302,80.339,18.246,81.353,17.28z M68.771,35.29
	c2.063-4.428,4.505-8.388,7.206-11.916h5.378V36.18H68.771V35.29z M68.771,39.175h12.583v12.591l-12.583-0.001V39.175z
	 M68.771,54.761h12.583v12.587H68.771V54.761z M68.771,70.339h12.583v12.587H68.771V70.339z M68.771,85.922h12.583v12.594H68.771
	V85.922z M65.778,107.088c-0.596-1.818-1.155-3.671-1.655-5.576h1.655V107.088z M65.778,98.516h-2.361
	c-0.925-4.048-1.614-8.252-2.061-12.594h4.422V98.516z M65.778,82.925h-4.716c-0.208-2.745-0.34-5.525-0.34-8.355
	c0-1.437,0.086-2.825,0.139-4.232h4.917V82.925z M65.778,67.348h-4.82c0.287-4.37,0.861-8.56,1.643-12.587h3.177V67.348z
	 M65.778,51.765h-2.535c0.707-3.106,1.555-6.085,2.535-8.937V51.765z M68.771,101.513h12.583v12.595H68.771V101.513z
	 M81.353,134.381c-0.57-0.594-1.108-1.258-1.662-1.882v-0.005h1.662V134.381z M81.355,129.5H77.2
	c-2.79-3.652-5.269-7.838-7.436-12.406v-0.004h11.591V129.5z M84.351,132.494h12.584v12.224c-4.473-1.552-8.699-4.1-12.584-7.504
	V132.494z M114.97,168.236v-0.002c-4.526,11.303-7.064,25.191-7.727,29.137h-0.356c-0.668-3.945-3.2-17.834-7.726-29.137
	c-2.081-5.22-6.016-12.289-10.004-18.969c5.576,2.936,11.586,4.54,17.843,4.54c6.326,0,12.386-1.64,18.023-4.626
	C121.009,155.871,117.062,162.994,114.97,168.236z M128.111,138.485c-3.914,3.133-8.138,5.427-12.596,6.722v-12.712h12.596V138.485z
	 M128.111,129.5h-12.594v-12.411h12.594V129.5z M128.111,114.101h-12.594v-12.595h12.594V114.101z M128.111,98.516h-12.594V85.922
	h12.594V98.516z M128.111,82.926h-12.594V70.339h12.594V82.926z M128.111,67.348h-12.594V54.761h12.594V67.348z M128.111,51.766
	l-12.594-0.001v-12.59h12.594V51.766z M128.111,36.18h-12.594V23.375h12.594V36.18z M128.111,20.383l-12.594-0.001V7.459
	c4.456,1.16,8.682,3.222,12.594,6.073V20.383z M131.106,135.831v-3.34h3.202C133.273,133.667,132.204,134.784,131.106,135.831z
	 M143.689,118.221c-2.035,4.127-4.332,7.926-6.889,11.277h-5.694v-12.406v-0.003h12.583V118.221z M143.689,114.107h-12.583v-12.595
	h12.583V114.107z M143.689,98.516h-12.583V85.922h12.583V98.516z M143.689,82.926h-12.583V70.339h12.583V82.926z M143.689,67.348
	h-12.583V54.761h12.583V67.348z M143.689,51.766l-12.583-0.001v-12.59h12.583V51.766z M143.689,36.18h-12.583V23.375h6.919
	c2.066,2.701,3.96,5.672,5.664,8.91V36.18z M146.688,111.362v-9.849h3.186C148.98,104.945,147.9,108.217,146.688,111.362z
	 M150.582,98.516h-3.894V85.922h5.952C152.195,90.264,151.506,94.467,150.582,98.516z M152.936,82.926h-6.247V70.339h6.448
	c0.051,1.406,0.138,2.794,0.138,4.231C153.274,77.4,153.139,80.18,152.936,82.926z"/>
</svg>
