<?xml version="1.0" encoding="utf-8"?>
<!-- Generator: Adobe Illustrator 14.0.0, SVG Export Plug-In . SVG Version: 6.00 Build 43363)  -->
<!DOCTYPE svg PUBLIC "-//W3C//DTD SVG 1.1//EN" "http://www.w3.org/Graphics/SVG/1.1/DTD/svg11.dtd">
<svg version="1.1"
	 id="svg1332" sodipodi:version="0.32" inkscape:version="0.42.2" sodipodi:docname="Anonymous_praying_hands.svg" sodipodi:docbase="C:\docs\sarah\church\vbs\soldiers\images\public_domain" xmlns:rdf="http://www.w3.org/1999/02/22-rdf-syntax-ns#" xmlns:sodipodi="http://inkscape.sourceforge.net/DTD/sodipodi-0.dtd" xmlns:cc="http://creativecommons.org/ns#" xmlns:dc="http://purl.org/dc/elements/1.1/" xmlns:svg="http://www.w3.org/2000/svg" xmlns:inkscape="http://www.inkscape.org/namespaces/inkscape" xmlns:ns1="http://sozi.baierouge.fr"
	 xmlns="http://www.w3.org/2000/svg" xmlns:xlink="http://www.w3.org/1999/xlink" x="0px" y="0px" width="216px" height="288px"
	 viewBox="0 0 216 288" enable-background="new 0 0 216 288" xml:space="preserve">
<sodipodi:namedview  id="base" inkscape:window-width="901" inkscape:pageopacity="0.0" inkscape:window-height="651" inkscape:window-x="87" inkscape:window-y="19" inkscape:current-layer="layer1" inkscape:pageshadow="2" showgrid="false" inkscape:cx="403.79190" inkscape:zoom="0.35000000" inkscape:cy="396.80712" bordercolor="#666666" borderopacity="1.0" pagecolor="#ffffff" inkscape:document-units="px">
	</sodipodi:namedview>
<path fill="#030303" d="M197.959,189.79c-1.676-0.623-5.308-1.899-8.074-2.833c-2.762-0.934-6.876-2.389-9.135-3.229
	c-5.229-1.95-10.426-1.965-14.896-0.043c-3.318,1.427-3.576,1.439-5.879,0.279c-3.659-1.849-6.306-4.657-7.054-7.481
	c-0.372-1.402-1.496-7.493-2.496-13.535c-1.833-11.063-3.596-18.833-6.217-27.429c-0.783-2.566-1.734-8.737-2.111-13.716
	c-0.922-12.117-2.877-17.575-12.188-34.017c-2.764-4.878-6.293-12.052-7.85-15.942c-2.714-6.787-5.787-19.386-5.787-23.739
	c0-1.142-0.387-2.465-0.859-2.938c-2.054-2.054-8.669-0.156-11.355,3.26c-1.787,2.271-3.116,1.765-4.992-1.913
	c-2.158-4.23-5.249-7.478-12.93-13.575c-9.311-7.398-16.506-13.71-21.9-19.208C57.222,6.577,50.422,4.271,47.46,8.038
	c-0.776,0.988-1.658,1.795-1.958,1.795s-2.259-1.894-4.356-4.209c-4.722-5.216-7.174-6.373-11.052-5.211
	c-4.531,1.358-6.099,4.261-6.122,11.342c-0.015,4.313-0.322,6.216-1.161,7.181c-1.801,2.069-2.151,4.915-1.226,9.94
	c0.81,4.396,0.772,4.752-0.678,6.293c-2.38,2.536-3.803,7.441-4.253,14.671c-0.45,7.232,0.671,16.221,2.502,20.062
	c1.042,2.186,1.011,2.87-0.433,9.388c-3.932,17.747-4.71,28.559-2.526,35.088c0.65,1.946,3.299,6.444,5.885,9.989
	c6.753,9.262,8.69,13.495,9.439,20.632c1.351,12.887,5.854,28.887,11.914,42.33l2.474,5.495l-3.868,6.354
	c-4.768,7.831-8.731,17.652-9.812,24.311c-2.149,13.213-0.506,26.253,4.74,37.602c4.581,9.916,11.635,16.995,20.077,20.154
	c21.418,8,42.925-3.058,52.117-26.83c2.551-6.598,4.918-16.664,4.942-21.011c0.006-1.654,0.288-3.181,0.626-3.389
	c0.756-0.464,6.207,6.173,9.25,11.263l2.244,3.755l-2.45,12.927c-1.348,7.109-2.456,13.25-2.462,13.646
	c-0.006,0.394,1.363,1.382,3.039,2.192c1.68,0.811,7.785,3.932,13.565,6.935c6.014,3.122,12.47,5.934,15.082,6.548
	c5.075,1.197,9.142,0.891,10.466-0.777c0.481-0.602,1.399-3.555,2.041-6.56c6.984-32.614,13.182-53.14,20.436-67.647
	c2.966-5.928,9.266-15.357,12.52-18.734l2.538-2.638L197.959,189.79z M27.375,63.327L26.447,63
	C26.794,62.313,27.097,62.45,27.375,63.327z M22.181,37.872l-0.835,1.815C21.592,38.856,21.872,38.236,22.181,37.872z"/>
</svg>
