<?xml version="1.0" encoding="utf-8"?>
<!-- Generator: Adobe Illustrator 14.0.0, SVG Export Plug-In . SVG Version: 6.00 Build 43363)  -->
<!DOCTYPE svg PUBLIC "-//W3C//DTD SVG 1.1//EN" "http://www.w3.org/Graphics/SVG/1.1/DTD/svg11.dtd">
<svg version="1.1"
	 id="svg2" inkscape:version="0.48.4 r9939" sodipodi:docname="mantarraya.svg" xmlns:svg="http://www.w3.org/2000/svg" xmlns:cc="http://creativecommons.org/ns#" xmlns:ns1="http://sozi.baierouge.fr" xmlns:sodipodi="http://sodipodi.sourceforge.net/DTD/sodipodi-0.dtd" xmlns:dc="http://purl.org/dc/elements/1.1/" xmlns:rdf="http://www.w3.org/1999/02/22-rdf-syntax-ns#" xmlns:inkscape="http://www.inkscape.org/namespaces/inkscape"
	 xmlns="http://www.w3.org/2000/svg" xmlns:xlink="http://www.w3.org/1999/xlink" x="0px" y="0px" width="216px" height="288px"
	 viewBox="0 0 216 288" enable-background="new 0 0 216 288" xml:space="preserve">
<sodipodi:namedview  id="base" inkscape:window-maximized="1" inkscape:window-x="0" inkscape:current-layer="layer1" inkscape:window-height="845" fit-margin-right="0" inkscape:pageopacity="0.0" inkscape:window-width="1440" inkscape:document-units="px" inkscape:pageshadow="2" fit-margin-bottom="0" inkscape:window-y="24" inkscape:cy="214.22183" pagecolor="#ffffff" borderopacity="1.0" fit-margin-top="0" bordercolor="#666666" showgrid="false" inkscape:zoom="1.01" inkscape:cx="306.1875" fit-margin-left="0">
	</sodipodi:namedview>
<path stroke="#000000" d="M34.585,191.61c-0.162,0.214-0.266,0.356-0.26,0.362C34.456,192.104,34.535,191.896,34.585,191.61z"/>
<path stroke="#000000" d="M209.204,189.24c-4.744,4.324-11.743,4.705-17.419,3.415c-1.242-0.282-2.506-0.455-3.758-0.683
	c-3.982-0.725-7.983-0.914-11.954-1.708c-4.153-0.831-10.112-2.022-14.346-2.392c-1.361-0.117-4.794-2.555-6.147-2.732
	c-3.41-0.444-6.805-2.027-10.248-2.391c-1.245-0.131-6.489-3.757-6.489-3.757c-4.021-2.137-5.818-3.681-9.563-6.489
	c-9.062-6.797-12.215-17.096-14.688-26.984c-0.393-1.571,0-3.849,0-5.465c0-2.893,0.785-6.443,3.416-8.197
	c5.787-3.858,23.597-0.857,30.398-1.708c1.862-0.233,3.945-1.134,5.807-1.366c9.264-1.158,18.271-3.392,27.325-5.807
	c8.48-2.262,17.187-3.867,23.567-10.247c1.554-1.553,2.862-4.958,3.416-7.173c0.452-1.809,1.051-3.783,1.025-3.757
	c-0.58,0.579-0.697,1.735-1.025,2.391c-1.039,2.079-3.854,5.872-5.807,7.173c-5.521,3.681-12.246,4.84-18.785,6.148
	c-5.838,1.167-12.051,4.058-18.445,5.123c-17.742,2.957-35.839,2.391-53.967,2.391c-2.827,0-5.191,0.017-7.856,0.683
	c-0.629,0.157-1.436-0.205-2.049,0c-2.807,0.936-4.652,3.828-7.514,4.782c-3.694,1.231-8.365-0.896-11.613-1.708
	c-1.451-0.363-3.041,0.125-4.44-0.341c-5.548-1.85-11.314-1.431-17.078-2.391c-7.074-1.179-9.947-6.934-15.37-11.271
	c-3.213-2.57-6.651-5.285-9.564-8.197c-1.285-1.286-1.93-3.86-2.732-5.465c-2.235-4.471-1.235-10.065-2.391-14.687
	c-0.176-0.704-0.474-4.125-2.049-3.074c-3.693,2.462-6.6,16.945-7.515,21.518c-0.558,2.789-1.833,5.408-2.391,8.197
	c-0.671,3.355-1.574,11.808-0.683,15.37c0.583,2.333,1.659,4.978,2.391,7.173c0.456,1.367,0.231,3.083,0.683,4.44
	c0.643,1.927,2.085,3.865,2.733,5.807c0.187,0.56,0.63,7.082,0.341,7.514c-0.404,0.607-0.911,1.139-1.366,1.708l0.001,0.001
	c-3.242,4.016-7.55,5.932-12.296,7.515c-2.468,0.822-4.532,2.607-6.831,3.757c-0.559,0.279-3.757,1.294-3.757,2.049
	c0,2.249,14.556,0.408,16.053-0.341c1.054-0.527,5.016-1.024,6.148-1.024c0.256,0,1.055,0.92,1.366,1.024
	c1.136,0.379,2.688,0.49,3.757,1.024c2.577,1.289,3.531,5.182,6.148,6.49c2.165,1.082,5.421-0.363,7.514,0.683
	c1.385,0.692-4.756,8.829-5.465,10.247c-0.572,1.144-1.025,2.813-1.025,4.099c0,0.023-0.01,0.597-0.082,1.004
	c0.597-0.789,2.035-2.615,2.131-2.712c3.743-3.743,12.036-6.289,16.737-7.855c3.842-1.281,8.576-0.061,12.296,0.683
	c2.118,0.424,4.165,2.281,6.148,3.074c4.675,1.87,9.754,2.772,14.346,4.782c2.421,1.059,5.754,3.038,8.197,3.757
	c1.098,0.323,2.293,0.117,3.416,0.341c4.681,0.938,9.256,2.314,14.003,3.074c9.33,1.493,18.701,2.321,28.008,3.416
	c1.865,0.219,3.604,1.118,5.466,1.366c2.452,0.327,5.025,0.833,7.515,1.024c0.457,0.035,4.152-0.041,4.439,0
	c1.641,0.234,3.144,1.114,4.781,1.367c1.463,0.225,2.975-0.196,4.441,0c3.928,0.523,7.599,0.683,11.612,0.683
	c2.21,0,5.354,0.498,7.515,0c3.193-0.737,6.244-2.704,9.563-3.415c4.87-1.044,13.927-5.289,18.103-9.564
	C217.889,186.936,216.054,182.996,209.204,189.24z M30.284,155.934c-2.692-0.086,3.062-3.695,4.303-2.781
	C33.216,153.979,32.086,155.99,30.284,155.934z M51.063,164.646c-1.832,3.664-6.281,0.942-1.708-2.049
	C52.548,163.236,51.941,162.89,51.063,164.646z"/>
</svg>
