<?xml version="1.0" encoding="utf-8"?>
<!-- Generator: Adobe Illustrator 14.0.0, SVG Export Plug-In . SVG Version: 6.00 Build 43363)  -->
<!DOCTYPE svg PUBLIC "-//W3C//DTD SVG 1.1//EN" "http://www.w3.org/Graphics/SVG/1.1/DTD/svg11.dtd">
<svg version="1.1" id="Layer_1" xmlns="http://www.w3.org/2000/svg" xmlns:xlink="http://www.w3.org/1999/xlink" x="0px" y="0px"
	 width="216px" height="288px" viewBox="0 0 216 288" enable-background="new 0 0 216 288" xml:space="preserve">
<path stroke="#000000" d="M209.204,190.24c-4.744,4.324-11.743,4.705-17.419,3.414c-1.242-0.281-2.506-0.454-3.758-0.682
	c-3.982-0.727-7.983-0.914-11.954-1.709c-4.153-0.83-10.112-2.021-14.347-2.393c-1.36-0.117-4.793-2.557-6.146-2.73
	c-3.41-0.445-6.805-2.027-10.248-2.393c-1.245-0.131-6.489-3.757-6.489-3.757c-4.021-2.138-5.817-3.683-9.563-6.489
	c-9.062-6.797-12.215-17.096-14.688-26.982c-0.393-1.571,0-3.851,0-5.465c0-2.893,0.785-6.443,3.416-8.197
	c5.787-3.858,23.598-0.857,30.398-1.708c1.861-0.233,3.945-1.134,5.807-1.366c9.264-1.158,18.271-3.392,27.325-5.807
	c8.479-2.262,17.187-3.867,23.567-10.247c1.554-1.553,2.86-4.958,3.416-7.173c0.451-1.809,1.051-3.783,1.023-3.757
	c-0.58,0.579-0.695,1.735-1.023,2.391c-1.039,2.079-3.854,5.872-5.809,7.173c-5.521,3.681-12.246,4.84-18.783,6.148
	c-5.84,1.167-12.053,4.058-18.445,5.123c-17.742,2.957-35.84,2.391-53.967,2.391c-2.828,0-5.191,0.017-7.856,0.683
	c-0.629,0.157-1.436-0.205-2.049,0c-2.807,0.936-4.652,3.828-7.514,4.782c-3.694,1.231-8.365-0.896-11.613-1.708
	c-1.451-0.363-3.041,0.125-4.44-0.341c-5.548-1.85-11.314-1.431-17.078-2.391c-7.074-1.179-9.947-6.934-15.37-11.271
	c-3.213-2.57-6.651-5.285-9.564-8.197c-1.285-1.286-1.93-3.86-2.732-5.465c-2.235-4.471-1.235-10.065-2.391-14.687
	c-0.176-0.704-0.474-4.125-2.049-3.074c-3.693,2.462-6.6,16.945-7.515,21.518c-0.558,2.789-1.833,5.408-2.391,8.197
	c-0.671,3.355-1.574,11.808-0.683,15.37c0.583,2.333,1.659,4.978,2.391,7.173c0.456,1.367,0.231,3.083,0.683,4.44
	c0.643,1.927,2.085,3.865,2.733,5.807c0.187,0.56,0.63,7.082,0.341,7.514c-0.404,0.607-0.911,1.139-1.366,1.708l0.001,0.001
	c-3.242,4.016-7.55,5.932-12.296,7.516c-2.468,0.821-4.532,2.606-6.831,3.756c-0.559,0.279-3.757,1.295-3.757,2.051
	c0,2.249,14.556,0.406,16.053-0.342c1.054-0.526,5.016-1.023,6.148-1.023c0.256,0,1.055,0.92,1.366,1.023
	c1.136,0.379,2.688,0.49,3.757,1.023c2.577,1.289,3.531,5.182,6.148,6.49c2.165,1.082,5.421-0.363,7.514,0.684
	c1.385,0.691-4.756,8.828-5.465,10.246c-0.572,1.145-1.025,2.813-1.025,4.1c0,0.022-0.01,0.598-0.082,1.005
	c0.597-0.789,2.035-2.615,2.131-2.714c3.743-3.741,12.036-6.289,16.737-7.854c3.842-1.279,8.576-0.063,12.296,0.684
	c2.118,0.424,4.165,2.28,6.148,3.074c4.675,1.869,9.754,2.771,14.346,4.781c2.421,1.061,5.754,3.038,8.197,3.757
	c1.098,0.323,2.293,0.117,3.416,0.343c4.681,0.938,9.256,2.313,14.003,3.072c9.33,1.493,18.701,2.321,28.008,3.416
	c1.865,0.221,3.604,1.118,5.466,1.366c2.452,0.327,5.024,0.833,7.515,1.022c0.457,0.035,4.152-0.041,4.439,0
	c1.641,0.234,3.145,1.114,4.781,1.367c1.463,0.225,2.975-0.195,4.439,0c3.93,0.523,7.6,0.685,11.612,0.685
	c2.21,0,5.354,0.497,7.515,0c3.193-0.737,6.244-2.704,9.563-3.415c4.868-1.045,13.927-5.289,18.103-9.564
	C217.889,187.936,216.055,183.996,209.204,190.24z M30.284,156.934c-2.692-0.086,3.062-3.693,4.303-2.781
	C33.216,154.979,32.086,156.99,30.284,156.934z M51.063,165.646c-1.832,3.664-6.281,0.94-1.708-2.049
	C52.548,164.236,51.941,163.891,51.063,165.646z"/>
</svg>
