<?xml version="1.0" encoding="utf-8"?>
<!-- Generator: Adobe Illustrator 14.0.0, SVG Export Plug-In . SVG Version: 6.00 Build 43363)  -->
<!DOCTYPE svg PUBLIC "-//W3C//DTD SVG 1.1//EN" "http://www.w3.org/Graphics/SVG/1.1/DTD/svg11.dtd">
<svg version="1.1"
	 id="svg2" inkscape:export-filename="C:\Documents and Settings\Dan\Skrivbord\Clipart egna (InkScape)\Original\Kanske Upload\Skiftnyckel sillhoette.png" inkscape:export-ydpi="310" sodipodi:version="0.32" inkscape:version="0.45.1+0.46pre1+devel" sodipodi:docname="Skiftnyckel sillhoette.svg" inkscape:export-xdpi="310" xmlns:rdf="http://www.w3.org/1999/02/22-rdf-syntax-ns#" xmlns:sodipodi="http://sodipodi.sourceforge.net/DTD/sodipodi-0.dtd" xmlns:cc="http://creativecommons.org/ns#" xmlns:dc="http://purl.org/dc/elements/1.1/" xmlns:svg="http://www.w3.org/2000/svg" xmlns:inkscape="http://www.inkscape.org/namespaces/inkscape" xmlns:ns1="http://sozi.baierouge.fr" inkscape:output_extension="org.inkscape.output.svg.inkscape"
	 xmlns="http://www.w3.org/2000/svg" xmlns:xlink="http://www.w3.org/1999/xlink" x="0px" y="0px" width="216px" height="288px"
	 viewBox="0 0 216 288" enable-background="new 0 0 216 288" xml:space="preserve">
<sodipodi:namedview  id="base" inkscape:window-width="1152" inkscape:pageopacity="0.0" inkscape:window-height="838" inkscape:window-x="0" inkscape:window-y="0" inkscape:current-layer="layer2" inkscape:pageshadow="2" showgrid="false" inkscape:cx="117.53114" inkscape:zoom="2.3334524" objecttolerance="10" inkscape:cy="9.001574" guidetolerance="10" bordercolor="#666666" borderopacity="1.0" pagecolor="#ffffff" gridtolerance="10000" inkscape:document-units="px">
	</sodipodi:namedview>
<g>
	<path stroke="#212121" stroke-width="0.3" d="M215.537,146.726c-0.781-12.984-11.426-14.029-11.426-14.029l-102.227,1.019
		c0.515-0.26-19.247,0.269-21.328,0.269c-2.081,0-17.166-4.952-20.548-5.473c-3.381-0.52-20.313-11.704-21.353-11.964
		c-1.041-0.26-9.357-5.713-10.918-5.713l-0.001,0c-1.561,0-5.196,1.033-7.538,2.333c-2.341,1.301-6.76,4.694-6.76,4.694
		S3.026,129.034,1.985,131.114c-1.04,2.08-1.556,6.518-1.556,6.518s22.635-6.502,24.197-5.982c1.561,0.52,2.602,4.158,2.602,4.158
		l10.649,41.364c0,0,4.96-1.035,5.74-1.555c0.781-0.521,4.427-5.473,4.427-5.473s9.88-6.756,12.741-8.316
		c2.862-1.561,9.871-4.424,13.252-5.203c3.381-0.781,6.25-0.778,6.25-0.778l125.653,3.11
		C205.94,158.957,216.061,155.31,215.537,146.726z M202.662,154.801c-4.661,0-8.447-3.783-8.447-8.45
		c0-4.666,3.786-8.477,8.447-8.477c4.67,0,8.48,3.811,8.48,8.477C211.143,151.018,207.332,154.801,202.662,154.801z"/>
	<path stroke="#212121" stroke-width="0.3" d="M5.245,157.008c0,0,0.515,1.511,2.532,3.133c2.704,2.181,7.382,4.756,10.215,6.096
		c4.944,2.343,18.207,4.686,18.207,4.686l-5.459-21.073L5.245,157.008z"/>
</g>
</svg>
