<?xml version="1.0" encoding="utf-8"?>
<!-- Generator: Adobe Illustrator 14.0.0, SVG Export Plug-In . SVG Version: 6.00 Build 43363)  -->
<!DOCTYPE svg PUBLIC "-//W3C//DTD SVG 1.1//EN" "http://www.w3.org/Graphics/SVG/1.1/DTD/svg11.dtd">
<svg version="1.1"
	 id="svg2" inkscape:export-filename="C:\joanna\Gfx\drawings_vector\admin\radacina_men_in_black.png" inkscape:output_extension="org.inkscape.output.svg.inkscape" inkscape:version="0.46" sodipodi:docname="radacina_man_in_black_03.svg" sodipodi:version="0.32" inkscape:export-ydpi="48.135864" inkscape:export-xdpi="48.135864" xmlns:svg="http://www.w3.org/2000/svg" xmlns:cc="http://creativecommons.org/ns#" xmlns:ns1="http://sozi.baierouge.fr" xmlns:sodipodi="http://sodipodi.sourceforge.net/DTD/sodipodi-0.dtd" xmlns:dc="http://purl.org/dc/elements/1.1/" xmlns:rdf="http://www.w3.org/1999/02/22-rdf-syntax-ns#" xmlns:inkscape="http://www.inkscape.org/namespaces/inkscape"
	 xmlns="http://www.w3.org/2000/svg" xmlns:xlink="http://www.w3.org/1999/xlink" x="0px" y="0px" width="216px" height="288px"
	 viewBox="0 0 216 288" enable-background="new 0 0 216 288" xml:space="preserve">
<sodipodi:namedview  id="base" inkscape:window-x="3" inkscape:current-layer="layer1" inkscape:window-height="728" inkscape:pageopacity="0.0" inkscape:window-width="1280" inkscape:document-units="px" inkscape:pageshadow="2" inkscape:window-y="-20" inkscape:cy="129.01505" pagecolor="#ffffff" gridtolerance="10000" borderopacity="1.0" objecttolerance="10" bordercolor="#666666" guidetolerance="10" showgrid="false" inkscape:zoom="0.7" inkscape:cx="200.13048">
	</sodipodi:namedview>
<path d="M151.938,82.112c-0.984-16.501-1.607-23.046-2.6-27.254c-0.361-1.55-0.469-1.771-1.261-2.561
	c-1.076-1.079-1.33-1.167-11.364-3.958c-0.916-0.253-2.385-0.666-3.276-0.914c-2.284-0.641-8.335-3.325-9.504-4.213
	c-1.446-1.097-2.983-2.844-3.96-4.491c-0.715-1.2-0.923-1.763-1.161-3.125c-0.161-0.914-0.231-1.91-0.169-2.215
	c0.068-0.304,0.553-1.135,1.084-1.846c1.668-2.224,1.807-2.687,2.152-7.162l0.23-2.874l-0.545-0.782l-0.539-0.783l-0.046-3.706
	c-0.107-8.328-0.1-8.26-0.554-8.98c-0.522-0.848-5.175-5.398-5.897-5.771c-0.546-0.281-2.745-0.732-4.675-0.957
	c-0.555-0.065-1.492-0.238-2.069-0.385c-1.63-0.407-3.837,0.093-6.605,1.5c-0.577,0.29-1.222,0.459-1.753,0.459
	c-0.708,0-1.069,0.148-2.215,0.921c-0.746,0.507-2.268,1.815-3.368,2.907c-1.746,1.729-2.045,2.117-2.314,3
	c-0.692,2.252-0.938,8.995-0.377,10.429c0.261,0.674,0.392,1.631,0.7,5.076c0.131,1.449,0.431,3.945,0.577,4.705
	c0.131,0.734,0.869,1.673,1.861,2.37c0.569,0.403,0.861,0.764,0.984,1.239c0.1,0.369,0.515,1.184,0.923,1.809l0.73,1.139
	l-0.108,2.629c-0.069,1.446-0.223,2.891-0.354,3.209c-0.131,0.319-0.977,1.399-1.892,2.401c-0.907,1.001-2.045,2.468-2.53,3.26
	c-0.554,0.917-1.115,1.596-1.553,1.87c-1.123,0.707-9.981,4.414-15.241,6.377c-4.19,1.563-5.306,2.312-6.267,4.227
	c-1.238,2.456-1.822,5.14-3.253,14.88c-0.208,1.422-0.538,3.707-0.746,5.075c-1.799,12.172-1.715,11.157-1.584,18.27
	c0.115,6.42,0.507,13.287,0.854,15.11c0.177,0.922,0.538,5.175,1.492,17.747c0.6,7.936,0.569,7.789,2.729,11.734
	c1.93,3.522,3.292,5.706,3.899,6.251c0.238,0.224,0.338,0.492,0.284,0.815c-0.046,0.27-0.246,1.615-0.461,2.983
	c-0.208,1.368-0.5,3.198-0.646,4.06c-0.416,2.461-0.662,4.729-0.539,5.037c0.115,0.308,0.738,0.592,1.684,0.776
	c0.685,0.139,0.661,0.085,1.153,2.769c1.946,10.627,3.368,17.523,4.26,20.677c0.799,2.814,2.922,11.818,3.306,14.025
	c0.108,0.607,0.523,5.137,0.923,10.058c1,12.311,1.077,13.342,1.5,21.415c0.2,3.906,0.615,11.673,0.915,17.255
	c0.3,5.591,0.677,12.688,0.838,15.787c0.162,3.099,0.338,5.92,0.385,6.274c0.223,1.461,2.276,2.561,5.098,2.729
	c0.784,0.047,1.507,0.185,1.607,0.3c0.192,0.239-1.469,3.69-3.283,6.836c-0.854,1.484-0.954,1.769-0.954,2.745
	c0,1.723,0.446,2.961,1.346,3.737l0.776,0.661l4.614-0.069c4.368-0.069,4.76-0.107,7.259-0.669c1.461-0.322,2.799-0.661,2.983-0.762
	c0.454-0.246,0.584-0.6,0.846-2.299c0.261-1.645,0.423-1.846,1.646-2.029c1.692-0.254,2.491-1.646,2.637-4.568
	c0.1-2.053,0.039-2.422-0.6-3.359l-0.469-0.685l0.453-0.407c0.438-0.393,0.461-0.563,0.83-5.482
	c0.793-10.728,0.738-11.643-1.283-21.316c-0.7-3.352-1.438-6.881-1.638-7.85c-0.2-0.962-0.415-2.415-0.477-3.23
	c-0.131-1.775-0.446-5.559-0.562-6.82c-0.238-2.484-0.146-19.123,0.146-26.037c0.446-10.626,0.915-24.774,1.177-35.586
	c0.062-2.822,0.177-5.067,0.253-4.982c0.331,0.369,1.184,3.268,1.831,6.236c0.508,2.299,1.269,7.089,1.499,9.419
	c0.53,5.306,0.907,8.997,0.992,9.688c0.046,0.354,0.216,1.892,0.376,3.414c0.154,1.523,0.324,3.061,0.369,3.414
	c0.039,0.354,0.209,1.854,0.369,3.322c0.162,1.469,0.369,3.345,0.47,4.152c0.093,0.814,0.216,2.015,0.269,2.676
	c0.154,2.061,0.484,6.189,0.547,6.943c0.038,0.393,0.123,1.469,0.191,2.376c0.07,0.915,0.162,2.038,0.2,2.499
	c0.216,2.576,0.631,14.41,0.631,18.178c0.007,2.984-0.192,4.691-1.546,13.749c-0.762,5.067-1.1,11.681-0.961,18.7
	c0.115,5.914,0.131,6.075,0.561,6.921c0.455,0.899,1.031,1.607,1.4,1.73c0.146,0.054,0.084,0.438-0.192,1.269
	c-0.508,1.492-0.554,3.752-0.101,4.975c0.393,1.077,1.023,1.715,2.546,2.607c0.991,0.584,1.461,1.03,2.399,2.283
	c0.638,0.854,1.368,1.639,1.622,1.738c0.723,0.277,6.705,0.238,8.974-0.062c2.353-0.315,3.237-0.653,4.836-1.86
	c1.554-1.17,1.77-1.531,1.631-2.691c-0.162-1.369-1.161-3.276-3.253-6.198c-2.499-3.499-2.476-3.829,0.315-4.591
	c2.261-0.615,3.299-1.076,3.568-1.584c0.168-0.314,0.184-2.768,0.061-10.673c-0.191-12.003-0.191-12.841-0.016-33.142
	c0.154-17.755,0.301-21.984,1.055-29.812c0.652-6.782,0.854-9.065,1.084-12.457c0.1-1.423,0.392-3.999,0.661-5.721
	c0.538-3.452,0.815-9.39,0.753-15.917l-0.03-3.545l0.892-0.192c0.492-0.108,1.146-0.192,1.445-0.192h0.539l0.008-2.076
	c0-1.146-0.223-4.236-0.484-6.882l-0.484-4.806l1.061-1.654c0.584-0.915,1.469-2.26,1.969-2.991
	c2.545-3.753,3.845-7.774,5.121-15.833c0.953-6.051,0.992-6.659,1.076-18.085C152.714,95.869,152.676,94.408,151.938,82.112z
	 M105.147,56.919c-0.123,0.658-0.531,2.282-0.892,3.607c-0.823,2.989-1.6,6.822-1.6,7.914c0,1.184-0.308,1.208-0.815,0.069
	c-1.2-2.722-4.352-12.119-4.352-12.987c0-0.494,0.315-0.127,0.907,1.056c0.269,0.54,0.623,1.007,0.784,1.038
	c0.177,0.034,1.1-0.842,2.376-2.26c1.153-1.274,2.153-2.316,2.222-2.316c0.077,0,0.223,0.249,0.331,0.551
	c0.1,0.304,0.43,0.908,0.73,1.342C105.386,55.719,105.386,55.729,105.147,56.919z M105.731,49.375
	c-0.062,0.24-0.884,1.349-1.822,2.466c-0.938,1.116-2.415,2.765-3.283,3.662l-1.577,1.633l-1.045-2.187
	c-0.577-1.203-1.146-2.684-1.261-3.293c-0.115-0.609-0.531-2.313-0.915-3.784c-1.061-4.049-1.061-3.625-0.015-4.84
	c0.623-0.729,0.946-1.288,1.03-1.799c0.069-0.408,0.185-0.78,0.261-0.826c0.069-0.045,2.068,1.855,4.437,4.225
	C105.278,48.374,105.832,48.997,105.731,49.375z M118.619,66.426c-0.154,0.907-0.492,2.653-0.762,3.875
	c-0.262,1.215-0.537,2.276-0.615,2.361c-0.068,0.084-0.276-0.377-0.461-1.015c-0.369-1.33-1.93-5.029-3.606-8.547
	c-0.63-1.32-1.3-2.8-1.491-3.29c-0.2-0.49-0.861-1.625-1.484-2.524l-1.139-1.633l1.446-1.581l1.438-1.581l1.491,1.354
	c0.823,0.744,1.845,1.57,2.269,1.835c0.754,0.473,0.776,0.476,1.199,0.144c0.23-0.187,1.215-1.509,2.176-2.938
	c0.961-1.429,1.762-2.58,1.784-2.556C120.965,50.425,119.318,62.204,118.619,66.426z M121.379,45.934
	c-0.346,3.299-0.453,3.569-2.914,7.106c-0.945,1.37-1.846,2.513-1.983,2.539c-0.139,0.026-0.63-0.249-1.085-0.611
	c-1.299-1.025-5.043-4.766-5.352-5.333c-0.262-0.494-0.246-0.528,0.462-1.168c0.407-0.363,2.622-2.452,4.937-4.642
	c2.307-2.191,4.283-3.982,4.383-3.982s0.554,0.456,1.016,1.014C121.811,42.038,121.795,41.949,121.379,45.934z"/>
</svg>
