<?xml version="1.0" encoding="utf-8"?>
<!-- Generator: Adobe Illustrator 14.0.0, SVG Export Plug-In . SVG Version: 6.00 Build 43363)  -->
<!DOCTYPE svg PUBLIC "-//W3C//DTD SVG 1.1//EN" "http://www.w3.org/Graphics/SVG/1.1/DTD/svg11.dtd">
<svg version="1.1"
	 id="svg13095" inkscape:version="0.48.3.1 r9886" sodipodi:docname="skunk.svg" xmlns:rdf="http://www.w3.org/1999/02/22-rdf-syntax-ns#" xmlns:sodipodi="http://sodipodi.sourceforge.net/DTD/sodipodi-0.dtd" xmlns:cc="http://creativecommons.org/ns#" xmlns:dc="http://purl.org/dc/elements/1.1/" xmlns:svg="http://www.w3.org/2000/svg" xmlns:inkscape="http://www.inkscape.org/namespaces/inkscape" xmlns:ns1="http://sozi.baierouge.fr"
	 xmlns="http://www.w3.org/2000/svg" xmlns:xlink="http://www.w3.org/1999/xlink" x="0px" y="0px" width="216px" height="288px"
	 viewBox="0 0 216 288" enable-background="new 0 0 216 288" xml:space="preserve">
<sodipodi:namedview  id="base" inkscape:window-width="1366" inkscape:pageopacity="0.0" inkscape:window-height="744" inkscape:window-x="0" inkscape:window-y="24" inkscape:current-layer="layer1" inkscape:pageshadow="2" showgrid="false" inkscape:cx="146.72353" inkscape:zoom="0.35" inkscape:cy="-406.07783" bordercolor="#666666" fit-margin-left="0" borderopacity="1.0" pagecolor="#ffffff" fit-margin-top="0" inkscape:window-maximized="1" fit-margin-right="0" inkscape:document-units="px" fit-margin-bottom="0">
	</sodipodi:namedview>
<g id="flowRoot5209" transform="translate(-435.45 -151.2)">
</g>
<path d="M203.328,220.143c-12.646,6.563-21.426,8.125-35.823,6.374c-6.151-0.747-11.768-0.999-12.48-0.559
	c-2.51,1.551-1.288,5.599,2.192,7.267c1.92,0.92,4.465,3.668,5.657,6.105c5.138,10.507,1.165,20.066-8.511,20.478
	c-16.487,0.701-30.553-12.544-38.813-36.551c-1.368-3.976-2.213-7.503-1.879-7.837c0.335-0.336,0.97,0.33,1.41,1.479
	c1.113,2.898,1.925,2.684,8.34-2.215c3.1-2.367,6.756-4.52,8.125-4.783c1.865-0.359-0.809-2.861-10.674-9.991l-13.162-9.511
	l0.694-15.883c0.382-8.735,1.568-19.027,2.635-22.871l1.94-6.988l-0.699,11.935c-0.386,6.564-0.998,12.711-1.362,13.659
	c-0.453,1.18,0.384,1.725,2.65,1.725c1.821,0,3.313-0.541,3.313-1.201c0-1.139,1.351-2.002,11.118-7.099
	c2.271-1.186,4.209-3.091,4.307-4.233c0.78-9.133-2.025-21.308-7.889-34.242l-3.658-8.065l3.676-7.204
	c5.342-10.468,18.17-30.539,23.283-36.428c5.955-6.859,9.523-14.251,11.846-24.531c1.447-6.413,1.598-9.474,0.595-12.114
	c-1.817-4.78-3.151-3.543-5.604,5.198c-2.125,7.576-4.269,9.742-12.869,13.012c-3.441,1.308-3.515,1.246-2.785-2.399
	c0.411-2.059,3.717-10.677,7.344-19.153c4.857-11.347,6.223-15.785,5.178-16.83c-3.089-3.089-38.854,5.507-54.689,13.146
	C84.692,35.639,68.76,49.816,59.195,63.235c-11.371,15.952-21.388,40.248-25.473,61.783c-1.102,5.81-2.139,10.676-2.305,10.814
	s-2.874,1.539-6.019,3.113c-5.175,2.592-25.412,22.036-25.412,24.418c0,0.542,0.857,0.986,1.906,0.986
	c1.264,0,1.906,1.264,1.906,3.752c0,5.217,2.552,10.305,4.973,9.914c1.471-0.237,2.104,0.876,2.341,4.121
	c0.179,2.447,0.87,6.449,1.536,8.895c0.666,2.446,1.575,7.299,2.021,10.783l0.811,6.337l2.855-6.972
	c3.451-8.428,9.98-21.301,12.519-24.682c1.726-2.299,1.991-1.962,3.996,5.082c5.868,20.623,20.5,43.374,39.401,61.266
	c17.078,16.165,32.951,24.795,51.827,28.178v0.001c14.684,2.632,37.618-0.62,52.293-7.411c15.828-7.328,37.617-33.889,37.617-45.857
	C215.988,214.146,214.25,214.475,203.328,220.143z"/>
</svg>
