<?xml version="1.0" encoding="utf-8"?>
<!-- Generator: Adobe Illustrator 14.0.0, SVG Export Plug-In . SVG Version: 6.00 Build 43363)  -->
<!DOCTYPE svg PUBLIC "-//W3C//DTD SVG 1.1//EN" "http://www.w3.org/Graphics/SVG/1.1/DTD/svg11.dtd">
<svg version="1.1"
	 id="svg13095" inkscape:version="0.48.3.1 r9886" sodipodi:docname="New document 44" xmlns:rdf="http://www.w3.org/1999/02/22-rdf-syntax-ns#" xmlns:sodipodi="http://sodipodi.sourceforge.net/DTD/sodipodi-0.dtd" xmlns:cc="http://creativecommons.org/ns#" xmlns:dc="http://purl.org/dc/elements/1.1/" xmlns:svg="http://www.w3.org/2000/svg" xmlns:inkscape="http://www.inkscape.org/namespaces/inkscape" xmlns:ns1="http://sozi.baierouge.fr"
	 xmlns="http://www.w3.org/2000/svg" xmlns:xlink="http://www.w3.org/1999/xlink" x="0px" y="0px" width="216px" height="288px"
	 viewBox="0 0 216 288" enable-background="new 0 0 216 288" xml:space="preserve">
<sodipodi:namedview  id="base" inkscape:window-width="1366" inkscape:pageopacity="0.0" inkscape:window-height="744" inkscape:window-x="0" inkscape:window-y="24" inkscape:current-layer="layer1" inkscape:pageshadow="2" showgrid="false" inkscape:cx="354.34161" inkscape:zoom="0.35" inkscape:cy="-464.9468" bordercolor="#666666" fit-margin-left="0" borderopacity="1.0" pagecolor="#ffffff" fit-margin-top="0" inkscape:window-maximized="1" fit-margin-right="0" inkscape:document-units="px" fit-margin-bottom="0">
	</sodipodi:namedview>
<g id="flowRoot5209" transform="translate(-435.45 -151.2)">
</g>
<path d="M219.662,93.78c-1.322-2.175-2.791-2.993-7.457-4.152c-8.563-2.126-19.127-3.078-26.584-2.395
	c-5.768,0.529-6.846,0.928-8.751,3.239c-3.128,3.793-3.769,5.853-4.452,14.309c-0.809,9.996-1.482,11.674-4.672,11.633
	c-1.397-0.018-3.57-0.621-4.828-1.34c-4.992-2.854-28.713-0.56-38.992,3.771c-2.834,1.194-8.566,1.648-27.825,2.205
	c-25.978,0.75-44.167,2.998-63.198,7.809c-11.281,2.852-32.907,10.506-32.907,11.647c0,0.195,5.045-0.816,11.212-2.246
	c25.074-5.815,47.08-7.547,63.841-5.024c16.373,2.464,33.615,7.59,37.571,11.169c0.78,0.706,3.231,1.924,5.446,2.705
	c3.96,1.396,7.322,3.734,7.322,5.092c0,0.379-1.854,2.596-4.119,4.927c-2.265,2.331-4.118,5.007-4.118,5.947
	c0,0.939-1.441,3.435-3.204,5.543c-1.762,2.108-3.196,4.517-3.188,5.349c0.022,2.047,2.547,17.342,3.205,19.416
	c0.558,1.76,7.651,3.178,12.766,2.551c1.833-0.225,2.861,0.209,3.588,1.516c0.561,1.007,1.156,2.036,1.323,2.288
	c0.167,0.251,2.845,0.702,5.95,0.999l0.004,0.002c3.104,0.297,6.263,0.334,7.018,0.08c0.756-0.253,2.301-0.438,3.433-0.41
	c1.133,0.029,2.06-0.493,2.06-1.158c0-1.35-4.257-5-5.844-5.011c-1.234-0.009-3.455-4.507-2.771-5.613
	c0.707-1.145,3.496-0.962,4.771,0.312c0.854,0.854,1.098,0.854,1.098,0c0-1.66-3.443-4.76-5.287-4.76
	c-0.896,0-2.578,0.666-3.738,1.479c-2.672,1.871-3.771,0.856-4.436-4.095c-0.59-4.397,0.004-5.471,8.295-14.982
	c6.417-7.361,8.828-11.387,8.828-14.742c0-2.78,3.344-3.926,5.572-1.908c0.838,0.758,3.008,1.618,4.824,1.913
	c4.305,0.698,5.653,2.286,4.08,4.806c-1.348,2.157-2.629,2.4-4.227,0.804c-0.854-0.854-1.098-0.73-1.098,0.556
	c0,1.094-0.465,1.476-1.373,1.127c-0.915-0.352-1.373,0.037-1.373,1.163c0,5.624,10.719,5.135,12.895-0.589
	c0.858-2.256,0.997-2.303,2.474-0.822c1.476,1.479,1.453,1.76-0.394,4.963c-1.154,2-2.794,3.521-3.992,3.702
	c-1.283,0.192-1.807-0.061-1.42-0.687c0.338-0.546,0.205-0.992-0.295-0.992c-0.498,0-1.168,0.824-1.488,1.83
	c-0.639,2.014-2.279,2.504-2.303,0.688c-0.009-0.764-0.309-0.688-0.9,0.229c-1.318,2.041-1.148,2.617,1.506,5.078
	c2.842,2.633,5.023,2.815,8.572,0.72c2.688-1.589,3.691-3.249,6.498-10.757l1.684-4.501l-4.803-5.567l-4.803-5.566l0.838-5.75
	c0.635-4.348,1.421-6.293,3.225-7.979c8.271-7.733,10.023-9.983,12.434-15.973c1.413-3.509,3.437-7.181,4.498-8.159
	c2.749-2.537,8.012-4.521,15.053-5.675c9.155-1.501,11.441-2.434,13.096-5.347c0.707-1.243,1.057-1.95,1.039-2.663
	C220.821,95.768,220.434,95.048,219.662,93.78z M125.238,173.605c-3.035,4.582-3.026,4.295-0.313,10.801
	c0.532,1.275,0.204,1.602-1.611,1.602c-2.572,0-3.375-1.846-3.396-7.805c-0.015-4.133,1.476-6.734,5.495-9.598
	C129.09,165.989,129.022,167.893,125.238,173.605z"/>
</svg>
