<?xml version="1.0" encoding="utf-8"?>
<!-- Generator: Adobe Illustrator 14.0.0, SVG Export Plug-In . SVG Version: 6.00 Build 43363)  -->
<!DOCTYPE svg PUBLIC "-//W3C//DTD SVG 1.1//EN" "http://www.w3.org/Graphics/SVG/1.1/DTD/svg11.dtd">
<svg version="1.1"
	 id="svg13095" inkscape:version="0.48.3.1 r9886" sodipodi:docname="vulture.svg" xmlns:rdf="http://www.w3.org/1999/02/22-rdf-syntax-ns#" xmlns:sodipodi="http://sodipodi.sourceforge.net/DTD/sodipodi-0.dtd" xmlns:cc="http://creativecommons.org/ns#" xmlns:dc="http://purl.org/dc/elements/1.1/" xmlns:svg="http://www.w3.org/2000/svg" xmlns:inkscape="http://www.inkscape.org/namespaces/inkscape" xmlns:ns1="http://sozi.baierouge.fr"
	 xmlns="http://www.w3.org/2000/svg" xmlns:xlink="http://www.w3.org/1999/xlink" x="0px" y="0px" width="216px" height="288px"
	 viewBox="0 0 216 288" enable-background="new 0 0 216 288" xml:space="preserve">
<sodipodi:namedview  id="base" inkscape:window-width="1366" inkscape:pageopacity="0.0" inkscape:window-height="744" inkscape:window-x="0" inkscape:window-y="24" inkscape:current-layer="layer1" inkscape:pageshadow="2" showgrid="false" inkscape:cx="145.6575" inkscape:zoom="0.35" inkscape:cy="-0.58977482" bordercolor="#666666" fit-margin-left="0" borderopacity="1.0" pagecolor="#ffffff" fit-margin-top="0" inkscape:window-maximized="1" fit-margin-right="0" inkscape:document-units="px" fit-margin-bottom="0">
	</sodipodi:namedview>
<g id="flowRoot5209" transform="translate(-435.45 -151.2)">
</g>
<g>
	<polygon stroke="#000000" stroke-width="0.7934" points="67.943,111.203 67.943,111.203 67.943,111.203 	"/>
	<path stroke="#000000" stroke-width="0.7934" d="M26.734,143.453c-1.817,1.149-17.074-1.897-17.074-1.897s-4.792-0.925-5.533,2.371
		c-0.742,3.296,2.108,3.794,2.108,3.794l19.34,3.32c0,0,0.676,0.136,2.951-0.738c2.274-0.873,9.538-7.219,9.538-7.219l32.567-26.242
		l-2.687-5.638C67.935,111.209,28.551,142.303,26.734,143.453z"/>
	<polygon stroke="#000000" stroke-width="0.7934" points="63.569,100.716 63.569,100.717 63.57,100.716 	"/>
	<path stroke="#000000" stroke-width="0.7934" d="M28.578,64.565c1.318,0.296,8.213,5.046,8.906,6.587s3.794,7.694,3.794,7.694
		l5.323-0.475c0,0-3.391-5.842-4.795-8.063c-1.054-1.666-0.725-1.806-1.001-2.055c-0.092-0.083-0.216-0.16-0.527-0.316
		c-1.244-0.626-6.21-4.86-8.167-6.166c-1.958-1.306-1.932-1.321-4.058-1.106c-2.126,0.214-12.887,1.107-12.12,2.319
		S27.259,64.269,28.578,64.565z"/>
	<path stroke="#000000" stroke-width="0.7934" d="M27.103,128.856c1.022,1.615,5.955,0.474,5.955,0.474l33.251-23.872l-2.74-4.742
		l-32.356,22.975C31.213,123.692,26.081,127.241,27.103,128.856z"/>
	<path stroke="#000000" stroke-width="0.7934" d="M199.009,110.504c-2.666-3.879-5.431-7.151-8.272-9.959
		c-27.482-27.149-61.13-7.694-61.13-7.694s-3.382-5.236-15.546-6.587C101.897,84.914,94.932,89.9,94.932,89.9
		s-5.188-4.629-11.014-4.9c-5.826-0.272-20.969,0.813-23.713-0.843c-2.745-1.656-3.531-2.898-3.531-2.898s-1.166-1.796-4.058-2.792
		c-2.712-0.935-21.119,1.643-22.712,7.114v-0.632c0,0-18.314-3.421-21.079-4.216c-2.765-0.795-6.844-7.235-7.747-5.533
		s4.953,8.748,4.953,8.748s0.38,0.588,2.688,1.107c2.307,0.519,21.131,3.003,21.131,3.003l0.053-1.317
		c0.975,6.116,18.458-1.547,30.196,8.484c11.296,9.655,8.381,24.435,21.975,32.514c2.89,1.718,10.247,5.382,19.339,9.749
		l-12.489,21.869c0,0-5.508,12.751-6.271,17.232c-0.763,4.48,4.423,9.524,7.43,9.222c3.007-0.304,2.055-2.478,2.055-2.478
		s-2.723-6.236-2.846-8.958c-0.123-2.721,19.499-32.356,19.499-32.356l-6.851-4.321c19.367,9.286,47.913,22.274,70.244,31.565
		c0.213,7.846,0.038,17.688,0.316,20.445c0.455,4.511,3.025,6.002,5.164,10.646s15.02,22.501,15.02,22.501s3.286,5.121,6.112,4.533
		c2.826-0.59,2.898-5.428,2.898-5.428l-17.179-29.09c0,0-1.109-8.092-0.527-12.858c0.141-1.149,0.043-3.334-0.264-6.061
		c10.881,4.276,18.672,6.825,20.395,6.271C210.934,178.032,227.449,151.878,199.009,110.504z"/>
	<polygon stroke="#000000" stroke-width="0.7934" points="190.735,100.544 190.736,100.545 190.736,100.545 	"/>
</g>
</svg>
