<?xml version="1.0" encoding="utf-8"?>
<!-- Generator: Adobe Illustrator 14.0.0, SVG Export Plug-In . SVG Version: 6.00 Build 43363)  -->
<!DOCTYPE svg PUBLIC "-//W3C//DTD SVG 1.1//EN" "http://www.w3.org/Graphics/SVG/1.1/DTD/svg11.dtd">
<svg version="1.1"
	 id="svg13095" inkscape:version="0.48.3.1 r9886" sodipodi:docname="vulture.svg" xmlns:rdf="http://www.w3.org/1999/02/22-rdf-syntax-ns#" xmlns:sodipodi="http://sodipodi.sourceforge.net/DTD/sodipodi-0.dtd" xmlns:cc="http://creativecommons.org/ns#" xmlns:dc="http://purl.org/dc/elements/1.1/" xmlns:svg="http://www.w3.org/2000/svg" xmlns:inkscape="http://www.inkscape.org/namespaces/inkscape" xmlns:ns1="http://sozi.baierouge.fr"
	 xmlns="http://www.w3.org/2000/svg" xmlns:xlink="http://www.w3.org/1999/xlink" x="0px" y="0px" width="216px" height="288px"
	 viewBox="0 0 216 288" enable-background="new 0 0 216 288" xml:space="preserve">
<sodipodi:namedview  id="base" inkscape:window-width="1366" inkscape:pageopacity="0.0" inkscape:window-height="744" inkscape:window-x="0" inkscape:window-y="24" inkscape:current-layer="layer1" inkscape:pageshadow="2" showgrid="false" inkscape:cx="145.6575" inkscape:zoom="0.35" inkscape:cy="-0.58977482" bordercolor="#666666" fit-margin-left="0" borderopacity="1.0" pagecolor="#ffffff" fit-margin-top="0" inkscape:window-maximized="1" fit-margin-right="0" inkscape:document-units="px" fit-margin-bottom="0">
	</sodipodi:namedview>
<g id="flowRoot5209" transform="translate(-435.45 -151.2)">
</g>
<path stroke="#000000" stroke-width="0.7934" d="M199.009,110.504c-2.666-3.879-5.431-7.151-8.272-9.959
	c-27.481-27.149-61.129-7.694-61.129-7.694s-3.383-5.236-15.547-6.587c-12.164-1.35-19.128,3.636-19.128,3.636
	s-5.188-4.629-11.014-4.9c-5.826-0.272-20.969,0.813-23.713-0.843c-2.745-1.656-3.531-2.898-3.531-2.898s-1.166-1.796-4.058-2.792
	c-0.875-0.302-3.389-0.235-6.44,0.174c-0.951-1.631-3.269-5.59-4.37-7.333c-1.054-1.666-0.725-1.806-1.001-2.055
	c-0.092-0.083-0.216-0.16-0.527-0.316c-1.244-0.626-6.21-4.86-8.167-6.166c-1.958-1.306-1.932-1.321-4.058-1.106
	c-2.126,0.214-12.887,1.107-12.12,2.319s11.326,1.285,12.645,1.581c1.318,0.296,8.213,5.046,8.906,6.587
	c0.603,1.341,3.029,6.173,3.648,7.404c-5.241,1.204-10.417,3.238-11.228,6.025v-0.632c0,0-18.314-3.421-21.079-4.216
	C6.06,79.938,1.981,73.498,1.078,75.2c-0.903,1.702,4.953,8.748,4.953,8.748s0.38,0.588,2.688,1.107
	c2.307,0.519,21.131,3.003,21.131,3.003l0.053-1.317c0.975,6.116,18.458-1.547,30.196,8.484c1.631,1.394,2.959,2.898,4.09,4.47
	l-30.977,21.996c0,0.001-5.132,3.55-4.11,5.165c1.022,1.615,5.955,0.474,5.955,0.474l31.924-22.919
	c0.857,1.744,1.591,3.528,2.304,5.312c-5.143,4.057-38.874,30.668-40.552,31.73c-1.817,1.148-17.074-1.897-17.074-1.897
	s-4.792-0.925-5.533,2.371c-0.742,3.296,2.108,3.794,2.108,3.794l19.34,3.32c0,0,0.676,0.136,2.951-0.738
	c2.274-0.873,9.538-7.219,9.538-7.219l31.654-25.507c2.122,4.622,4.916,8.929,10.356,12.162c2.89,1.718,10.247,5.382,19.339,9.749
	l-12.489,21.87c0,0-5.508,12.75-6.271,17.231c-0.763,4.479,4.423,9.524,7.43,9.222c3.007-0.304,2.055-2.478,2.055-2.478
	s-2.723-6.235-2.846-8.958c-0.123-2.721,19.499-32.356,19.499-32.356l-6.851-4.321c19.367,9.286,47.914,22.274,70.244,31.565
	c0.213,7.846,0.039,17.688,0.316,20.444c0.455,4.511,3.025,6.002,5.164,10.646c2.139,4.645,15.02,22.502,15.02,22.502
	s3.287,5.121,6.112,4.533c2.826-0.591,2.897-5.429,2.897-5.429l-17.178-29.09c0,0-1.109-8.093-0.527-12.858
	c0.141-1.148,0.043-3.334-0.264-6.061c10.881,4.275,18.672,6.824,20.395,6.271C210.934,178.032,227.449,151.878,199.009,110.504z"/>
</svg>
