<?xml version="1.0" encoding="utf-8"?>
<!-- Generator: Adobe Illustrator 14.0.0, SVG Export Plug-In . SVG Version: 6.00 Build 43363)  -->
<!DOCTYPE svg PUBLIC "-//W3C//DTD SVG 1.1//EN" "http://www.w3.org/Graphics/SVG/1.1/DTD/svg11.dtd">
<svg version="1.1"
	 id="svg602" sodipodi:version="0.32" inkscape:version="0.45.1" sodipodi:docname="frosch.svg" sodipodi:docbase="/home/wipp/bilder/svg" xmlns:rdf="http://www.w3.org/1999/02/22-rdf-syntax-ns#" xmlns:sodipodi="http://sodipodi.sourceforge.net/DTD/sodipodi-0.dtd" xmlns:cc="http://web.resource.org/cc/" xmlns:dc="http://purl.org/dc/elements/1.1/" xmlns:svg="http://www.w3.org/2000/svg" xmlns:inkscape="http://www.inkscape.org/namespaces/inkscape" xmlns:ns1="http://sozi.baierouge.fr" inkscape:output_extension="org.inkscape.output.svg.inkscape"
	 xmlns="http://www.w3.org/2000/svg" xmlns:xlink="http://www.w3.org/1999/xlink" x="0px" y="0px" width="216px" height="288px"
	 viewBox="0 0 216 288" enable-background="new 0 0 216 288" xml:space="preserve">
<sodipodi:namedview  id="base" inkscape:window-width="880" inkscape:window-height="588" inkscape:window-x="194" inkscape:window-y="134" inkscape:current-layer="svg602" inkscape:cx="372.04724" inkscape:zoom="0.3563412" inkscape:cy="284.59042">
	</sodipodi:namedview>
<g>
	<path d="M62.575,84.388c-2.945,0.037-5.302,2.455-5.264,5.4c0,0.046,0,0.092,0,0.137c0.037,2.945,2.455,5.302,5.4,5.264
		c2.945-0.038,5.302-2.456,5.264-5.401c0-0.046,0-0.091,0-0.136C67.938,86.707,65.52,84.351,62.575,84.388z"/>
	<path d="M214.959,156.65c-1.521-3.801-4.188-7.992-6.289-12.303c-3.96-8.131-8.615-17.09-15.588-27.073
		c-3.369-4.83-7.762-9.326-12.575-13.673c-3.565-3.218-8.334-7.717-14.218-9.435c-3.961-1.153-8.184,0.271-11.355,2.05
		c-3.565,2.004-5.744,5.243-6.973,8.479c2.553,1.002,5.17,1.864,7.657,3.008c3.754,1.727,6.372,2.936,9.028,5.196
		c2.58,2.206,4.467,4.922,5.875,7.794c-7.021-4.513-14.283-9.368-21.877-12.716c-6.26-2.759-12.313-5.061-19.275-6.837
		c-6.625-1.688-13.063-3.772-19.417-6.837c-3.951-1.904-6.898-3.998-9.845-7.247c-2.891-3.178-4.186-7.056-5.199-10.803
		c-0.676-2.497-1.188-4.693-3.555-7.11c-1.917-1.958-4.095-3.834-7.657-4.375c-3.046-0.462-6.472,0.775-9.708,2.598
		c-5.744-2.734-10.501-5.274-16.409-7.384c-3.665-1.309-6.146-2.294-12.306-2.734c-3.411-0.244-8.773-0.934-13.126,2.461
		c-4.069,3.309-3.642,10.006-3.145,10.802l2.734,4.375l-5.469,3.966c-1.765,1.278-4.783,3.884-6.564,7.794
		c-1.728,3.792-1.574,10.378,0.547,13.947c1.889,3.178,3.357,4.716,5.743,6.973c7.559,7.816,14.413,12.318,16.955,15.451
		c2.832,3.321,6.675,8.09,7.52,12.306c0.285,2.101-0.865,3.193-1.093,3.692c-2.484,5.44-2.416,9.252-1.915,15.862
		c0.41,4.326,0.947,8.033,0.683,12.576c-0.283,2.477-0.197,4.279-1.914,5.199c-1.611,0.863-3.309-0.123-5.469-0.687
		c-9.599-2.487-18.797-4.758-28.442-7.104c-3.071-0.75-6.572,1.652-7.793,3.961c-0.957,1.943-1.017,3.248,0.137,4.787
		c1.444,1.924,2.899,1.896,4.102,1.772c1.212-0.112,1.687-1.633,2.188-2.729c2.553-0.143,9.39,0.957,13.538,2.326l-15.725,5.604
		c-1.823-1.275-2.931-1.746-5.059-0.957c-2.293,0.854-3.563,2.252-3.692,4.373c-0.145,2.393,0.794,4.309,2.461,5.199
		c2.071,1.107,4.259,0.639,5.88-0.545c1.069-0.778,1.458-1.867,1.777-3.426l19.827-5.189l-12.033,10.934
		c-2.917-0.592-5.351,0.021-6.7,2.469c-0.884,1.604-0.513,4.776,1.093,6.017c2.359,1.812,5.192,1.36,6.563,0
		c1.674-1.662,2.462-3.745,1.778-5.472l17.366-4.102c-4.284,2.186-7.537,4.176-10.802,7.385c-1.475,1.445-1.687,3.539-1.367,4.506
		c0.409,2.082,1.519,3.332,3.145,3.828c2.84,0.873,4.819-0.328,6.426-1.914c1.629-1.604,1.686-3.547,1.367-6.701l19.007-6.973
		c5.304-1.943,8.527-4.289,10.802-8.475c2.237-4.109,3.653-7.387,3.692-12.717c0.018-2.148-1.966-4.383-3.145-7.657
		c-0.827-2.29-0.775-4.374-0.547-6.974c2.234,5.425,3.205,6.822,5.06,10.117c3.888,6.916,7.031,10.651,11.759,15.588
		c5.754,6.006,9.932,8.512,17.229,10.67c6.419,1.896,11.711,1.408,18.188,1.09c-0.094,2.693,0.639,5.377,1.773,7.658
		c-10.482,0.188-20.966,0.094-31.448,0.271c-2.37-0.047-4.082,0.075-6.017,0.554c-2.897,0.704-4.469,1.793-5.332,3.688
		c-1.005,2.205-0.457,4.776,0.957,6.155c2.005,1.953,3.811,1.437,6.017,0.545c2.079-0.846,2.78-2.6,3.145-5.33l32.265,2.046
		l-21.05,3.696c-3.642,0.64-8.196,2.226-9.438,5.06c-0.855,1.952-0.848,4.638,0.683,6.017c2.617,2.354,6.126,2.084,8.069,0.545
		c2.478-1.972,2.506-4.195,1.774-7.519l30.218-2.188c-3.321,1.043-5.968,2.095-9.019,2.873c-2.692,0.676-5.086,2.225-6.842,3.274
		c-1.576,0.948-3.088,3.032-3.285,4.655c-0.252,2.111,0.244,4.721,1.644,5.875c1.698,1.398,4.082,1.717,5.885,1.229
		c1.933-0.516,3.547-1.406,4.231-3.275c0.724-1.961,0.779-3.743-0.131-5.883l10.529-1.773c3.528-0.602,7.104-0.984,10.66-1.37
		c8.653-0.938,14.453-1.153,21.877-0.957c6.156,0.168,11.496,0.271,16.816,0.412c7.349,0.179,12.633-0.582,18.328-1.914
		c3.463-0.815,5.733-2.571,8.063-4.786c2.459-2.337,3.67-4.738,3.697-8.482c0.02-3.463-1.83-6.147-4.786-8.889
		c-2.374-2.187-5.79-3.05-9.845-3.003c1.229-3.557,1.033-5.885,1.229-9.44c0.02-2.873-1.098-6.224-2.326-9.433
		c-1.906-5.594-4.168-10.905-7.377-16.133c-2.121-3.435-3.988-6.832-5.341-11.076c-0.516-1.635-0.862-3.555-0.685-5.333
		c10.078,14.813,9.289,16.045,14.228,23.11c2.769,3.96,6.193,6.155,9.703,6.287c2.778,0.104,5.067-1.229,6.701-3.144
		C216.703,162.994,216.169,159.682,214.959,156.65z M38.984,105.515c-4.423,0.717-7.713,0.168-11.213-4.375
		c-3.063-3.979-3.522-7.947-1.914-12.17c1.81-4.755,4.967-6.7,9.297-9.435c6.017,6.837,11.724,12.592,11.486,16.818
		C46.377,101.061,44.406,104.637,38.984,105.515z M72.219,90.766c0.058,4.531-3.568,8.25-8.099,8.309
		c-4.531,0.059-8.25-3.568-8.309-8.099c-0.001-0.07-0.001-0.14,0-0.21c-0.058-4.531,3.568-8.25,8.099-8.309
		c4.531-0.058,8.25,3.568,8.309,8.099C72.22,90.626,72.22,90.696,72.219,90.766z M132.514,181.268
		c-2.797,3.068-4.055,9.207,0.271,16.133c-2.777,0.318-5.564,0.638-8.344,0.957c-1.322-1.82-2.805-10.559,0-15.86
		c3.502-6.354,14.266-13.401,28.719-8.07C143.682,173.656,137.055,176.273,132.514,181.268z"/>
</g>
</svg>
