<?xml version="1.0" encoding="utf-8"?>
<!-- Generator: Adobe Illustrator 14.0.0, SVG Export Plug-In . SVG Version: 6.00 Build 43363)  -->
<!DOCTYPE svg PUBLIC "-//W3C//DTD SVG 1.1//EN" "http://www.w3.org/Graphics/SVG/1.1/DTD/svg11.dtd">
<svg version="1.1"
	 id="svg2" inkscape:export-filename="C:\Documents and Settings\WILS\Desktop\chibi samples\openclipart\seal.png" inkscape:export-ydpi="90" sodipodi:version="0.32" inkscape:version="0.46" sodipodi:docname="seal.svg" inkscape:export-xdpi="90" xmlns:rdf="http://www.w3.org/1999/02/22-rdf-syntax-ns#" xmlns:sodipodi="http://sodipodi.sourceforge.net/DTD/sodipodi-0.dtd" xmlns:cc="http://creativecommons.org/ns#" xmlns:dc="http://purl.org/dc/elements/1.1/" xmlns:svg="http://www.w3.org/2000/svg" xmlns:inkscape="http://www.inkscape.org/namespaces/inkscape" xmlns:ns1="http://sozi.baierouge.fr" inkscape:output_extension="org.inkscape.output.svg.inkscape"
	 xmlns="http://www.w3.org/2000/svg" xmlns:xlink="http://www.w3.org/1999/xlink" x="0px" y="0px" width="216px" height="288px"
	 viewBox="0 0 216 288" enable-background="new 0 0 216 288" xml:space="preserve">
<sodipodi:namedview  id="base" inkscape:window-width="1280" inkscape:pageopacity="0.0" inkscape:window-height="740" inkscape:window-x="0" inkscape:window-y="26" inkscape:current-layer="layer1" inkscape:pageshadow="2" showgrid="false" inkscape:cx="375" inkscape:zoom="0.35" objecttolerance="10" inkscape:cy="518.73552" guidetolerance="10" bordercolor="#666666" borderopacity="1.0" pagecolor="#ffffff" gridtolerance="10000" inkscape:document-units="px">
	</sodipodi:namedview>
<path d="M189.242,86.524c-23.238,4.082-20.229,49.619-48.988,43.239c-27.074-6.002-70.039,3.283-86.45,26.367
	c-1.828,2.571-1.175-0.425-14.205-1.427c-11.531-0.883-30.256,5.689-28.079,7.184c1.497,1.026,3.025,1.922,4.566,2.711
	c-10.332,3.772-18.391,8.552-15.49,11.691c33.105,35.836,53.547,0.767,61.948,4.258c15.325,6.371,20.935,11.268,47.093,11.037
	c8.824-0.077,24.401-4.447,28.392-7.056c-3.556,7.782-13.312,47.194,32.798,2.221c20.215-19.714,5.66-50.715,29.766-73.914
	C226.876,85.925,217.154,81.62,189.242,86.524z"/>
</svg>
