<?xml version="1.0" encoding="utf-8"?>
<!-- Generator: Adobe Illustrator 14.0.0, SVG Export Plug-In . SVG Version: 6.00 Build 43363)  -->
<!DOCTYPE svg PUBLIC "-//W3C//DTD SVG 1.1//EN" "http://www.w3.org/Graphics/SVG/1.1/DTD/svg11.dtd">
<svg version="1.1"
	 id="svg13095" inkscape:version="0.48.3.1 r9886" sodipodi:docname="weevil.svg" xmlns:rdf="http://www.w3.org/1999/02/22-rdf-syntax-ns#" xmlns:sodipodi="http://sodipodi.sourceforge.net/DTD/sodipodi-0.dtd" xmlns:cc="http://creativecommons.org/ns#" xmlns:dc="http://purl.org/dc/elements/1.1/" xmlns:svg="http://www.w3.org/2000/svg" xmlns:inkscape="http://www.inkscape.org/namespaces/inkscape" xmlns:ns1="http://sozi.baierouge.fr"
	 xmlns="http://www.w3.org/2000/svg" xmlns:xlink="http://www.w3.org/1999/xlink" x="0px" y="0px" width="216px" height="288px"
	 viewBox="0 0 216 288" enable-background="new 0 0 216 288" xml:space="preserve">
<sodipodi:namedview  id="base" inkscape:window-width="1366" inkscape:pageopacity="0.0" inkscape:window-height="744" inkscape:window-x="0" inkscape:window-y="24" inkscape:current-layer="layer1" inkscape:pageshadow="2" showgrid="false" inkscape:cx="150.19406" inkscape:zoom="0.35" inkscape:cy="123.56045" bordercolor="#666666" fit-margin-left="0" borderopacity="1.0" pagecolor="#ffffff" fit-margin-top="0" inkscape:window-maximized="1" fit-margin-right="0" inkscape:document-units="px" fit-margin-bottom="0">
	</sodipodi:namedview>
<g id="flowRoot5209" transform="translate(-435.45 -151.2)">
</g>
<path d="M215.936,60.001c-0.344-0.896-1.093-1.036-3.53-0.659c-5.15,0.797-7.822,1.816-16.685,6.359l-8.492,4.354l-6.189-1.228
	c-5.145-1.021-6.881-1.084-10.295-0.376l-4.106,0.853l-3.425-2.784c-1.883-1.532-5.425-4.635-7.871-6.897
	c-4.025-3.723-9.957-7.187-12.307-7.187c-2.196,0-2.648,1.943-1.489,6.414c0.621,2.396,1.129,5.305,1.129,6.464
	c0,1.16,0.655,3.394,1.456,4.965s1.457,3.399,1.457,4.062c0,2.206,2.891,4.917,6.529,6.126c2.039,0.677,3.742,1.728,3.929,2.422
	c1.507,5.595,1.452,5.781-4.323,14.709c-3.52,5.44-4.23,5.838-12.973,7.261c-2.055,0.334-7.299,1.346-11.652,2.249
	c-7.414,1.537-8.426,1.583-16.014,0.729c-4.455-0.501-10.066-1.208-12.47-1.568c-10.851-1.632-28.725-0.16-40.783,3.358
	c-7.243,2.113-15.153,6.602-19.443,11.034c-4.904,5.066-6.393,9.629-7.435,22.783c-0.853,10.763-1.082,11.894-3.056,15.116
	c-4.063,6.631-9.602,7.758-20.922,4.256c-3.537-1.095-6.622-1.801-6.854-1.568c-0.752,0.753,2.15,3.317,6.309,5.573
	c8.961,4.862,15.432,4.718,22.61-0.506c2.488-1.812,4.659-3.157,4.824-2.992c0.631,0.631-1.84,7.233-4.46,11.919
	c-2.581,4.615-7.205,9.861-12.539,14.228c-2.136,1.747-2.366,2.317-2.36,5.826c0.008,4.701-1.286,16.672-2.513,23.246
	c-0.492,2.636-0.649,5.456-0.349,6.267c0.881,2.381,5.586,4.377,10.138,4.302c3.575-0.06,4.03-0.243,4.238-1.706
	c0.156-1.102-0.142-1.639-0.911-1.639c-0.628,0-1.143-0.502-1.143-1.117s-0.513-1.9-1.139-2.857
	c-2.772-4.231-1.821-16.713,1.752-22.971c2.646-4.634,8.181-10.925,9.612-10.925c1.482,0,2.447,2.276,6.942,16.387
	c4.375,13.73,4.83,14.242,12.554,14.114c7.38-0.123,8.149-0.363,8.149-2.549c0-1.375-0.605-2.061-2.525-2.863
	c-1.389-0.58-3.298-1.056-4.243-1.056c-0.944,0-2.405-0.737-3.246-1.639c-2.192-2.349-4.551-8.814-4.551-12.474
	c0-4.048,3.697-11.55,6.798-13.793c1.268-0.918,4.553-3.289,7.3-5.271c2.747-1.981,6.258-4.694,7.802-6.03
	c2.965-2.564,7.23-10.169,7.23-12.893c0-3.006,1.549-3.43,7.022-1.926c2.747,0.756,8.763,1.949,13.369,2.652
	c12.517,1.911,17.26,2.947,23.48,5.129c5.381,1.887,5.672,2.105,6.393,4.779c0.416,1.543,1.048,2.984,1.406,3.206
	c0.792,0.489,4.532,11.706,6.572,19.706c0.818,3.216,2.119,10.203,2.891,15.529c1.257,8.691,2.711,13.216,4.246,13.22
	c0.904,0.002,4.355,6.063,4.887,8.581c0.838,3.979,3.744,5.057,12.029,4.463c0.602-0.043,2.076,0.09,3.277,0.297
	c1.201,0.205,3.168,0.137,4.369-0.152c2.31-0.556,2.518-1.729,0.672-3.779c-1.635-1.814-1.232-2.656,1.514-3.172
	c1.641-0.309,2.549-0.89,2.549-1.634c0-1.912-4.954-6.062-7.236-6.062c-3.412,0-5.567-2.391-7.385-8.189
	c-1.455-4.64-1.639-6.613-1.506-16.207c0.169-12.146,2.07-23.826,4.809-29.549c0.877-1.832,3.374-5.437,5.549-8.011
	c6.937-8.211,8.457-11.208,8.898-17.547c0.24-3.434,1.002-6.939,1.977-9.104c2.088-4.63,4.321-11.208,4.344-12.795
	c0.01-0.728,2.184-6.902,3.546-7.475c7.36-0.492,9.51-1.677,12.376-5.095c1.657-1.976,2.573-4.474,1.654-7.558
	c-0.768-2.572-3.907-5.982-3.284-8.667c0.622-2.685,1.517-5.126,1.985-5.425c0.471-0.299,2.099-0.548,3.619-0.554
	c2.699-0.011,6.339-2.489,6.339-4.315c0-0.401,1.294-2.576,2.875-4.833C212.904,70.68,216.589,61.705,215.936,60.001z"/>
</svg>
