<?xml version="1.0" encoding="utf-8"?>
<!-- Generator: Adobe Illustrator 14.0.0, SVG Export Plug-In . SVG Version: 6.00 Build 43363)  -->
<!DOCTYPE svg PUBLIC "-//W3C//DTD SVG 1.1//EN" "http://www.w3.org/Graphics/SVG/1.1/DTD/svg11.dtd">
<svg version="1.1"
	 id="svg13095" inkscape:version="0.48.3.1 r9886" sodipodi:docname="xolo.svg" xmlns:rdf="http://www.w3.org/1999/02/22-rdf-syntax-ns#" xmlns:sodipodi="http://sodipodi.sourceforge.net/DTD/sodipodi-0.dtd" xmlns:cc="http://creativecommons.org/ns#" xmlns:dc="http://purl.org/dc/elements/1.1/" xmlns:svg="http://www.w3.org/2000/svg" xmlns:inkscape="http://www.inkscape.org/namespaces/inkscape" xmlns:ns1="http://sozi.baierouge.fr"
	 xmlns="http://www.w3.org/2000/svg" xmlns:xlink="http://www.w3.org/1999/xlink" x="0px" y="0px" width="216px" height="288px"
	 viewBox="0 0 216 288" enable-background="new 0 0 216 288" xml:space="preserve">
<sodipodi:namedview  id="base" inkscape:window-width="1366" inkscape:pageopacity="0.0" inkscape:window-height="744" inkscape:window-x="0" inkscape:window-y="24" inkscape:current-layer="layer1" inkscape:pageshadow="2" showgrid="false" inkscape:cx="158.09664" inkscape:zoom="0.35" inkscape:cy="394.15879" bordercolor="#666666" fit-margin-left="0" borderopacity="1.0" pagecolor="#ffffff" fit-margin-top="0" inkscape:window-maximized="1" fit-margin-right="0" inkscape:document-units="px" fit-margin-bottom="0">
	</sodipodi:namedview>
<g id="flowRoot5209" transform="translate(-435.45 -151.2)">
</g>
<path stroke="#000000" stroke-width="0.3091" d="M215.468,248.951c0,0-15.186-19.623-28.629-35.398
	c-2.41-2.828-4.649-5.12-6.707-6.988c0.688-11.087-0.815-27.922-0.815-27.922s1.543,2.779,3.809-0.135
	c2.266-2.913,8.738-35.286-19.125-75.297c-27.863-40.012-51.09-36.778-57.384-40.523c-3.509-2.088-9.934-11.524-19.305-18.942
	l0.34,0.133l3.102-0.788c1.774-0.451,4.604,2.366,4.604,2.366s-2.655-3.345-8.324-6.886h-0.003
	c-0.379-0.234-0.784-0.469-1.188-0.707c-0.432-0.253-0.867-0.491-1.328-0.744c-7.398-4.025-22.452-2.801-22.452-2.801l0.175,0.058
	c-0.93,0.032-1.878,0.107-2.836,0.224C34.136,37.68,29.82,60.159,29.82,60.159S-0.853,75.458,0.375,78.318s32.481-6.52,38.054-6.933
	c5.573-0.414,17.503,2.163,25.175,6.727c7.671,4.564,6.384,5.406,6.384,5.406s5.243,34.198,16.331,59.979
	c-0.354,1.031-2.421,7.045-3.279,8.489c-0.936,1.574-0.084,2.96-0.084,2.96l-2.514-0.219c0,0-14.701-0.129-17.338-1.507
	c-2.637-1.378-7.155-7.518-10.119-7.775c-2.964-0.257-5.583,6.189-5.583,6.189l0.291,0.126c-2.118-0.044-3.995-0.015-4.679,0.177
	c-1.883,0.525-4.745,4.402-4.903,6.227s-0.058,3.212-0.058,3.212l1.875-0.521c0,0,0.614-4.317,3.469-5.447
	c2.855-1.131,27.973,2.539,33.8,4.545c2.511,0.865,4.117,1.702,5.308,2.365c1.591,1.929,3.745,4.259,5.528,5.174
	c1.233,0.633,3.052,1.615,5.201,1.91c0.137,1.365,0.188,2.535,0.188,2.535l2.095-0.279c0,0,0.058-0.95-0.012-2.237
	c0.309-0.037,0.621-0.087,0.938-0.163l-0.607,0.197c0,0-1.157,0.127,1.793,1.883c2.951,1.756,11.862,9.184,12.573,10.672
	c0.713,1.489-0.959,3.414-0.959,3.414l1.963,1.168c0,0,1.751-4.281,0.683-6.515s-3.545-2.109-3.545-2.109l2.157-1.862
	c9.729,8.275,18.223,12.379,18.223,12.379s23.265,25.721,33.049,38.471c9.784,12.747,37.577,22.877,37.577,22.877l-3.387-5.846
	c0,0,1.657,1.779,4.953,4.654c3.295,2.875,10.012,4.959,10.012,4.959l-1.688-2.692l-4.563-6.972c0,0,2.335,1.545,4.465,3.769
	S215.468,248.951,215.468,248.951z M51.426,59.845c-1.77,0.253-3.329-0.468-3.492-1.611c-0.164-1.144,1.126-2.265,2.896-2.518
	c1.106-0.158,2.136,0.05,2.791,0.518c0.393,0.281,0.65,0.647,0.711,1.076C54.496,58.453,53.195,59.591,51.426,59.845z
	 M49.036,151.797c0.656-0.85,2.499-2.984,4.331-2.639h0c2.261,0.426,2.496,2.971,2.496,2.971S52.401,151.904,49.036,151.797z
	 M101.417,167.557l-0.432-0.724c0.201,0.225,0.405,0.442,0.607,0.664L101.417,167.557z"/>
</svg>
