<?xml version="1.0" encoding="utf-8"?>
<!-- Generator: Adobe Illustrator 14.0.0, SVG Export Plug-In . SVG Version: 6.00 Build 43363)  -->
<!DOCTYPE svg PUBLIC "-//W3C//DTD SVG 1.1//EN" "http://www.w3.org/Graphics/SVG/1.1/DTD/svg11.dtd">
<svg version="1.1"
	 id="svg3207" inkscape:output_extension="org.inkscape.output.svg.inkscape" inkscape:version="0.46" sodipodi:docname="alien silhouette.svg" sodipodi:version="0.32" xmlns:svg="http://www.w3.org/2000/svg" xmlns:cc="http://creativecommons.org/ns#" xmlns:ns1="http://sozi.baierouge.fr" xmlns:sodipodi="http://sodipodi.sourceforge.net/DTD/sodipodi-0.dtd" xmlns:dc="http://purl.org/dc/elements/1.1/" xmlns:rdf="http://www.w3.org/1999/02/22-rdf-syntax-ns#" xmlns:inkscape="http://www.inkscape.org/namespaces/inkscape"
	 xmlns="http://www.w3.org/2000/svg" xmlns:xlink="http://www.w3.org/1999/xlink" x="0px" y="0px" width="216px" height="288px"
	 viewBox="0 0 216 288" enable-background="new 0 0 216 288" xml:space="preserve">
<sodipodi:namedview  id="base" inkscape:window-x="-4" inkscape:current-layer="layer1" inkscape:window-height="719" inkscape:pageopacity="0.0" inkscape:window-width="1280" inkscape:document-units="px" inkscape:pageshadow="2" inkscape:window-y="-4" inkscape:cy="602.18455" pagecolor="#ffffff" borderopacity="1.0" bordercolor="#666666" showgrid="false" inkscape:zoom="0.49497475" inkscape:cx="-57.779942">
	</sodipodi:namedview>
<g id="layer1" transform="translate(-56.263 -208.12)" inkscape:groupmode="layer" inkscape:label="Camada 1">
	<g id="g3777">
		<path id="path3230" sodipodi:nodetypes="csssssssssssssssssssssszzss" d="M125.567,494.235c6.617,5.406,17.097-1.884,22.463-8.283
			c7.221-8.615,11.652-18.961,18.343-27.893c5.549-7.414,15.796-11.623,24.585-7.469c11.775,5.564,18.564,17.705,30.603,23.066
			c7.077,3.146,9.214,11.785,12.151,18.566c3.546,8.18,7.508-1.262,6.483-6.385c-1.543-7.735-7.897-12.819-13.679-17.266
			c-8.947-6.869-19.555-13.818-22.227-25.604c-2.68-11.85-7.571-23.209-10.435-34.915c-1.364-5.569,5.192-4.07,10.876-3.116
			c5.988,1.01,9.52,3.111,14.568,5.723c4.793,2.478,13.715,6.83,16.172,1.83c1.762-3.571-10.701-6.785-15.672-9.551
			c-7.087-3.946-12.928-10.024-19.248-14.589c-7.072-5.108-7.992-14.629-4.634-21.78c3.393-7.226-6.86-14.822-13.146-10.213
			c-4.826,3.541-5.361,10.426-3.121,15.599c2.335,5.405,0.465,11.488-5.643,13.507c-8.031,2.66-18.328,5.979-24.94,1.928
			c-4.451-2.729-17.858,0.05-11.543,4.234c5.445,3.604,13.215,1.088,19.758,2.294c7.69,1.419,18.11,4.96,18.585,13.962
			c0.608,11.488-10.623,19.203-13.501,29.316c-2.878,10.109-5.316,19.432-10.905,28.23c-5.583,8.793-11.434,18.719-20.722,24.094
			C128.767,490.671,123.471,492.52,125.567,494.235L125.567,494.235z"/>
		<path d="M186.319,230.979c-37.523,0-67.942,31.537-67.942,70.439c0,38.903,30.418,70.439,67.942,70.439
			s67.942-31.537,67.942-70.439C254.261,262.516,223.842,230.979,186.319,230.979z M144.357,335.894
			c-12.692,0-22.981-15.658-22.981-34.972c0-19.315,10.289-34.973,22.981-34.973s22.982,15.658,22.982,34.973
			C167.339,320.236,157.049,335.894,144.357,335.894z"/>
		<path d="M136.863,277.355c-8.553,0-15.487,10.552-15.487,23.568c0,13.016,6.934,23.568,15.487,23.568
			c8.554,0,15.488-10.552,15.488-23.568C152.351,287.907,145.417,277.355,136.863,277.355z M129.846,299.817
			c-2.208,0-3.997-2.723-3.997-6.082s1.79-6.082,3.997-6.082c2.207,0,3.997,2.723,3.997,6.082S132.053,299.817,129.846,299.817z"/>
		<path id="path3758" sodipodi:nodetypes="cssscccc" stroke="#000000" d="M159.341,255.929
			c-7.997-14.288-15.999-34.995-35.104-35.262c-16.627-0.237-48.223,2.453-49.683-8.2c-1.443-10.534,33.432,2.824,48.457,0.643
			c21.256-3.081,37.507,18.62,35.831,38.066l0.168,2.384L159.341,255.929z"/>
		<path id="path3775" sodipodi:nodetypes="cssscccc" stroke="#000000" d="M191.798,270.696
			c-8.002-14.288-16.004-34.995-35.108-35.262c-16.627-0.232-48.219,2.453-49.683-8.2c-1.439-10.534,33.432,2.824,48.461,0.643
			c21.256-3.082,37.502,18.62,35.826,38.066l0.173,2.384L191.798,270.696L191.798,270.696z"/>
	</g>
</g>
</svg>
