<?xml version="1.0" encoding="utf-8"?>
<!-- Generator: Adobe Illustrator 14.0.0, SVG Export Plug-In . SVG Version: 6.00 Build 43363)  -->
<!DOCTYPE svg PUBLIC "-//W3C//DTD SVG 1.1//EN" "http://www.w3.org/Graphics/SVG/1.1/DTD/svg11.dtd">
<svg version="1.1"
	 id="svg602" inkscape:output_extension="org.inkscape.output.svg.inkscape" inkscape:version="0.45.1" sodipodi:docname="frosch.svg" sodipodi:version="0.32" sodipodi:docbase="/home/wipp/bilder/svg" xmlns:svg="http://www.w3.org/2000/svg" xmlns:cc="http://web.resource.org/cc/" xmlns:ns1="http://sozi.baierouge.fr" xmlns:sodipodi="http://sodipodi.sourceforge.net/DTD/sodipodi-0.dtd" xmlns:dc="http://purl.org/dc/elements/1.1/" xmlns:rdf="http://www.w3.org/1999/02/22-rdf-syntax-ns#" xmlns:inkscape="http://www.inkscape.org/namespaces/inkscape"
	 xmlns="http://www.w3.org/2000/svg" xmlns:xlink="http://www.w3.org/1999/xlink" x="0px" y="0px" width="216px" height="288px"
	 viewBox="0 0 216 288" enable-background="new 0 0 216 288" xml:space="preserve">
<sodipodi:namedview  id="base" inkscape:window-x="194" inkscape:current-layer="svg602" inkscape:window-height="588" inkscape:window-width="880" inkscape:window-y="134" inkscape:cy="284.59042" inkscape:zoom="0.3563412" inkscape:cx="372.04724">
	</sodipodi:namedview>
<path id="path615" sodipodi:ry="7.4306335" sodipodi:rx="7.4306335" sodipodi:type="arc" sodipodi:cy="517.93945" sodipodi:cx="339.33221" d="
	M67.975,89.788c0.038,2.945-2.319,5.363-5.264,5.401c-2.945,0.038-5.363-2.319-5.4-5.264c0-0.045,0-0.091,0-0.137
	c-0.038-2.945,2.319-5.363,5.264-5.4s5.363,2.319,5.4,5.264C67.975,89.697,67.975,89.742,67.975,89.788z"/>
<path d="M214.959,156.65c-1.521-3.801-4.187-7.992-6.289-12.303c-3.96-8.131-8.615-17.09-15.588-27.073
	c-3.369-4.83-7.761-9.326-12.575-13.673c-3.566-3.218-8.334-7.717-14.218-9.435c-3.961-1.153-8.184,0.271-11.355,2.05
	c-3.566,2.004-5.744,5.243-6.973,8.479c2.553,1.002,5.17,1.864,7.657,3.008c3.754,1.727,6.372,2.936,9.028,5.196
	c2.581,2.206,4.467,4.922,5.875,7.794c-7.02-4.513-14.283-9.368-21.876-12.716c-6.26-2.759-12.313-5.061-19.276-6.837
	c-6.625-1.688-13.063-3.772-19.417-6.837c-3.951-1.904-6.898-3.998-9.845-7.247c-2.891-3.178-4.186-7.056-5.199-10.803
	c-0.676-2.497-1.188-4.693-3.555-7.11c-1.917-1.958-4.095-3.834-7.657-4.375c-3.046-0.462-6.472,0.775-9.708,2.598
	c-5.744-2.734-10.501-5.274-16.409-7.384c-3.665-1.309-6.146-2.294-12.306-2.734c-3.411-0.244-8.773-0.934-13.126,2.461
	c-4.069,3.309-3.642,10.006-3.145,10.802l2.734,4.375l-5.469,3.966c-1.765,1.278-4.783,3.884-6.564,7.794
	c-1.728,3.792-1.574,10.378,0.547,13.947c1.889,3.178,3.357,4.716,5.743,6.973c7.559,7.816,14.413,12.318,16.955,15.451
	c2.832,3.321,6.675,8.09,7.52,12.306h0c0.285,2.101-0.865,3.193-1.093,3.692c-2.484,5.44-2.416,9.253-1.915,15.862
	c0.41,4.326,0.947,8.033,0.683,12.576c-0.283,2.477-0.197,4.279-1.914,5.199c-1.611,0.863-3.309-0.123-5.469-0.686
	c-9.599-2.487-18.797-4.758-28.442-7.104c-3.071-0.751-6.572,1.651-7.793,3.96c-0.957,1.943-1.017,3.248,0.137,4.787
	c1.444,1.924,2.899,1.896,4.102,1.773c1.212-0.113,1.687-1.633,2.188-2.73c2.553-0.142,9.39,0.957,13.538,2.326l-15.725,5.604
	c-1.823-1.276-2.931-1.746-5.059-0.957c-2.293,0.854-3.563,2.252-3.692,4.373c-0.145,2.393,0.794,4.308,2.461,5.199
	c2.071,1.107,4.259,0.639,5.88-0.545c1.069-0.778,1.458-1.867,1.777-3.425l19.827-5.19l-12.033,10.934
	c-2.917-0.592-5.351,0.02-6.7,2.469c-0.884,1.604-0.513,4.776,1.093,6.016c2.359,1.811,5.192,1.36,6.563,0
	c1.674-1.662,2.462-3.745,1.778-5.472l17.366-4.101c-4.284,2.186-7.537,4.176-10.802,7.385c-1.475,1.445-1.687,3.539-1.367,4.505
	c0.409,2.083,1.519,3.332,3.145,3.829c2.84,0.873,4.819-0.328,6.426-1.914c1.629-1.605,1.686-3.548,1.367-6.701l19.007-6.973
	c5.304-1.943,8.527-4.289,10.802-8.475c2.237-4.11,3.653-7.386,3.692-12.717c0.018-2.148-1.966-4.383-3.145-7.657
	c-0.827-2.29-0.775-4.374-0.547-6.974c2.234,5.425,3.205,6.823,5.06,10.117c3.888,6.916,7.031,10.652,11.759,15.588
	c5.754,6.006,9.932,8.512,17.229,10.671c6.419,1.896,11.711,1.407,18.188,1.089c-0.094,2.693,0.638,5.377,1.773,7.658
	c-10.482,0.188-20.966,0.094-31.448,0.271c-2.37-0.047-4.082,0.075-6.017,0.554c-2.897,0.704-4.469,1.792-5.332,3.688
	c-1.005,2.205-0.457,4.777,0.957,6.156c2.005,1.952,3.811,1.436,6.017,0.545c2.079-0.846,2.78-2.6,3.145-5.331l32.265,2.046
	l-21.05,3.697c-3.642,0.639-8.196,2.225-9.438,5.059c-0.855,1.952-0.848,4.637,0.683,6.016c2.617,2.355,6.126,2.084,8.069,0.545
	c2.478-1.971,2.506-4.195,1.774-7.518l30.218-2.188c-3.321,1.043-5.968,2.094-9.018,2.873c-2.693,0.675-5.087,2.224-6.842,3.274
	c-1.576,0.948-3.088,3.032-3.285,4.655c-0.253,2.111,0.244,4.721,1.643,5.875c1.699,1.398,4.082,1.717,5.885,1.229
	c1.933-0.516,3.547-1.407,4.232-3.275c0.723-1.961,0.779-3.744-0.132-5.884l10.53-1.773c3.528-0.601,7.104-0.985,10.66-1.37
	c8.653-0.938,14.453-1.154,21.877-0.957c6.156,0.168,11.496,0.271,16.816,0.412c7.349,0.179,12.633-0.582,18.329-1.914
	c3.463-0.816,5.733-2.571,8.062-4.786c2.459-2.337,3.67-4.739,3.697-8.483c0.02-3.463-1.83-6.147-4.786-8.888
	c-2.374-2.187-5.79-3.05-9.845-3.003c1.229-3.557,1.033-5.885,1.229-9.441c0.019-2.872-1.098-6.223-2.327-9.432
	c-1.905-5.594-4.167-10.905-7.377-16.133c-2.121-3.435-3.988-6.832-5.34-11.076c-0.516-1.635-0.863-3.555-0.685-5.333
	c10.079,14.813,9.29,16.044,14.228,23.11c2.768,3.96,6.193,6.156,9.703,6.287c2.778,0.104,5.068-1.229,6.701-3.144
	C216.703,162.994,216.169,159.682,214.959,156.65z M38.984,105.515c-4.423,0.717-7.713,0.168-11.213-4.375
	c-3.063-3.979-3.522-7.947-1.914-12.17c1.81-4.755,4.967-6.7,9.297-9.435c6.017,6.837,11.724,12.592,11.486,16.818
	C46.377,101.061,44.406,104.637,38.984,105.515z M72.219,90.766c0.058,4.531-3.568,8.25-8.099,8.309s-8.25-3.568-8.309-8.099
	c-0.001-0.07-0.001-0.14,0-0.21c-0.058-4.531,3.568-8.25,8.099-8.309c4.531-0.058,8.25,3.568,8.309,8.099
	C72.22,90.626,72.22,90.696,72.219,90.766z M132.514,181.268c-2.797,3.068-4.055,9.206,0.271,16.132
	c-2.777,0.319-5.564,0.638-8.344,0.957c-1.322-1.82-2.805-10.558,0-15.86c3.502-6.354,14.266-13.401,28.719-8.07
	C143.682,173.656,137.055,176.274,132.514,181.268z"/>
</svg>
